<?xml version="1.0" encoding="UTF-8"?><svg id="Capa_1" xmlns="http://www.w3.org/2000/svg" viewBox="0 0 60.02 77.42"><defs><style>.cls-1{fill:#004884;stroke-width:0px;}</style></defs><path class="cls-1" d="m2.21,38.5c0-10.04,0-20.08,0-30.13,0-2.77,1.35-4.83,3.74-5.62.68-.22,1.43-.32,2.15-.32,8.55-.02,17.11,0,25.66-.02,1.8,0,3.27.63,4.53,1.89,5.5,5.53,11.01,11.05,16.54,16.54,1.35,1.34,2,2.88,1.99,4.8-.02,14.31-.04,28.61,0,42.92.01,3.44-2.24,5.47-4.41,5.9-.54.11-1.1.13-1.65.13-14.18,0-28.36,0-42.54,0-3.74,0-6.02-2.3-6.03-6.05,0-10.02,0-20.03,0-30.05ZM33.31,6.77c-.37,0-.61,0-.86,0-8.02,0-16.05,0-24.07,0-1.47,0-1.82.36-1.82,1.84,0,19.93,0,39.86,0,59.79,0,1.49.35,1.85,1.82,1.85,14.1,0,28.21,0,42.31,0,1.43,0,1.8-.37,1.8-1.79,0-13.9,0-27.8,0-41.7,0-.26-.02-.53-.04-.82h-.92c-4.09,0-8.17,0-12.26,0-3.57,0-5.94-2.36-5.95-5.91,0-4.11,0-8.22,0-12.34,0-.27,0-.55,0-.92Zm4.44,3.26c-.03.1-.06.17-.06.23,0,3.33-.01,6.65,0,9.98,0,.91.48,1.32,1.46,1.32,3.2,0,6.4,0,9.6,0,.16,0,.31-.04.48-.07-3.84-3.83-7.63-7.63-11.48-11.46Z"/><path class="cls-1" d="m29.57,57.73c5.04,0,10.09,0,15.13,0,1.36,0,2.28.74,2.41,1.9.14,1.21-.64,2.23-1.87,2.43-.22.04-.45.03-.68.03-10.04,0-20.07,0-30.11,0-1.52,0-2.49-.81-2.53-2.11-.04-1.3.9-2.25,2.29-2.26,3.86-.01,7.72,0,11.57,0,1.26,0,2.52,0,3.78,0Z"/><path class="cls-1" d="m29.47,49.57c-5.07,0-10.14,0-15.2,0-1.35,0-2.29-.83-2.35-2.05-.05-1.12.63-2.02,1.72-2.24.34-.07.7-.08,1.05-.08,9.88,0,19.77,0,29.65,0,.25,0,.51,0,.76.02,1.26.15,2.08,1.1,2.01,2.31-.07,1.16-.98,2.02-2.21,2.03-1.69.02-3.38,0-5.07,0-3.45,0-6.91,0-10.36,0Z"/><path class="cls-1" d="m29.44,37.05c-5.04,0-10.08,0-15.13,0-1.55,0-2.5-.96-2.39-2.38.08-.99.83-1.8,1.82-1.92.32-.04.65-.04.98-.04,9.86,0,19.71,0,29.57,0,.3,0,.61,0,.91.03,1.09.12,1.89.99,1.91,2.08.02,1.13-.77,2.06-1.88,2.19-.3.04-.6.03-.91.03-4.97,0-9.93,0-14.9,0Z"/><path class="cls-1" d="m20.28,24.55c-2.04,0-4.08.02-6.13,0-1.05-.01-1.85-.61-2.14-1.5-.29-.89-.01-1.9.79-2.41.38-.24.88-.42,1.33-.43,4.08-.03,8.17-.03,12.25-.01,1.3,0,2.24.93,2.24,2.16,0,1.23-.9,2.17-2.22,2.2-2.04.04-4.08,0-6.13,0Z"/></svg>