<?xml version="1.0" encoding="UTF-8"?><svg id="Capa_1" xmlns="http://www.w3.org/2000/svg" viewBox="0 0 76.99 77.42"><defs><style>.cls-1{fill:#fff;}.cls-1,.cls-2{stroke-width:0px;}.cls-2{fill:#3266cc;}</style></defs><circle class="cls-2" cx="38.5" cy="38.71" r="35.89"/><path class="cls-1" d="m38.49,58.39c-2.92,0-5.83,0-8.75,0-.7,0-.71,0-.7-.72.03-1.48-.35-1.36,1.4-1.5.05,0,.11,0,.16-.01,1.82-.16,2.47-.73,2.76-2.54.12-.73.19-1.47.19-2.21.02-4.19.02-8.38,0-12.57,0-.84-.09-1.7-.25-2.52-.18-.99-.83-1.58-1.84-1.71-.54-.07-1.09-.13-1.64-.13-.47,0-.69-.13-.65-.63.03-.42.03-.85,0-1.27-.03-.45.19-.55.6-.58,2.06-.13,4.13-.25,6.18-.45,1.23-.12,2.44-.43,3.67-.56,2.3-.25,3.24.48,3.6,2.76.11.69.14,1.41.14,2.11.01,5.22,0,10.43.02,15.65,0,.75.12,1.52.28,2.25.24,1.07.92,1.78,2.02,2.02.55.12,1.11.23,1.67.3.4.04.58.17.6.61.07,1.63.08,1.66-1.55,1.67-2.63.02-5.27,0-7.9,0,0,0,0,.02,0,.02Z"/><path class="cls-1" d="m43.34,23.79c.05,1.39-.17,2.73-1.36,3.62-.55.41-1.22.73-1.89.89-1.45.36-2.91.28-4.32-.3-1.1-.46-1.83-1.26-2.1-2.43-.29-1.24-.27-2.5.05-3.73.29-1.12,1-1.89,2.08-2.31,1.52-.59,3.08-.66,4.64-.23,1.73.47,2.73,1.76,2.89,3.59.02.3,0,.6,0,.9Z"/></svg>