<?xml version="1.0" encoding="UTF-8"?>
<svg id="Capa_1" data-name="Capa 1" xmlns="http://www.w3.org/2000/svg" viewBox="0 0 207.07 78.38">
  <defs>
    <style>
      .cls-1 {
        fill: #223a7a;
      }

      .cls-2 {
        fill: #fff;
      }

      .cls-3 {
        fill: #fdc703;
      }

      .cls-4 {
        fill: #d80e28;
      }
    </style>
  </defs>
  <g>
    <path class="cls-2" d="M10.75,65.18c-1.43,0-2.76-.19-3.98-.56-1.22-.37-2.26-.87-3.1-1.51l1.01-2.61c.84.6,1.77,1.07,2.78,1.39,1.01.33,2.1.49,3.29.49,1.36,0,2.35-.23,2.97-.68.62-.46.93-1.05.93-1.77,0-.6-.22-1.08-.66-1.42-.44-.34-1.19-.63-2.26-.85l-2.84-.59c-3.24-.69-4.86-2.35-4.86-4.98,0-1.14.3-2.13.9-2.97.6-.84,1.44-1.5,2.51-1.96,1.07-.46,2.3-.7,3.69-.7,1.24,0,2.4.19,3.49.56,1.08.37,1.99.89,2.71,1.56l-1.01,2.48c-1.43-1.2-3.17-1.81-5.22-1.81-1.19,0-2.12.25-2.79.75-.67.5-1.01,1.15-1.01,1.96,0,.62.21,1.11.62,1.49.41.37,1.12.66,2.12.87l2.81.59c1.7.36,2.97.93,3.81,1.7.83.77,1.25,1.81,1.25,3.1,0,1.08-.29,2.04-.88,2.87-.59.83-1.42,1.47-2.49,1.92-1.08.46-2.35.68-3.81.68Z"/>
    <path class="cls-2" d="M25.04,65.18c-3.1,0-4.65-1.74-4.65-5.22v-7.67h3.23v7.72c0,.9.18,1.56.54,1.99.36.43.94.65,1.73.65.86,0,1.57-.3,2.12-.89.55-.59.83-1.38.83-2.36v-7.1h3.23v12.63h-3.15v-1.89c-.84,1.43-2.14,2.14-3.87,2.14Z"/>
    <path class="cls-2" d="M35.42,69.58v-17.28h3.15v2.01c.36-.69.91-1.24,1.64-1.65.73-.41,1.56-.62,2.49-.62,1.1,0,2.07.27,2.91.8.83.53,1.48,1.29,1.95,2.26s.7,2.14.7,3.5-.23,2.51-.7,3.5c-.46.99-1.11,1.75-1.94,2.29s-1.8.8-2.92.8c-.9,0-1.7-.19-2.41-.58-.71-.39-1.26-.91-1.64-1.56v6.53h-3.23ZM41.8,62.73c.96,0,1.74-.35,2.32-1.05.59-.7.88-1.73.88-3.09s-.29-2.41-.88-3.09c-.59-.68-1.36-1.02-2.32-1.02s-1.74.34-2.32,1.02c-.59.68-.88,1.71-.88,3.09s.29,2.39.88,3.09c.59.7,1.36,1.05,2.32,1.05Z"/>
    <path class="cls-2" d="M57.14,65.18c-1.43,0-2.66-.27-3.69-.8-1.03-.53-1.83-1.29-2.39-2.27-.56-.98-.84-2.14-.84-3.49s.27-2.45.81-3.44c.54-.98,1.29-1.75,2.25-2.31.96-.56,2.04-.84,3.27-.84,1.79,0,3.21.57,4.25,1.7,1.04,1.14,1.56,2.69,1.56,4.65v.96h-9.04c.24,2.26,1.53,3.38,3.87,3.38.71,0,1.41-.11,2.12-.32.71-.22,1.35-.56,1.94-1.02l.9,2.17c-.6.5-1.36.9-2.27,1.19-.91.29-1.83.44-2.74.44ZM56.67,54.23c-.95,0-1.71.29-2.3.88-.59.59-.94,1.38-1.06,2.38h6.35c-.07-1.05-.36-1.85-.87-2.41-.51-.56-1.22-.84-2.13-.84Z"/>
    <path class="cls-2" d="M64.91,64.93v-12.63h3.15v2.22c.62-1.5,1.95-2.32,3.98-2.48l.98-.08.21,2.74-1.86.18c-2.12.21-3.18,1.29-3.18,3.25v6.79h-3.28Z"/>
    <path class="cls-2" d="M79.74,64.93v-15.44h-6.25v-2.76h15.81v2.76h-6.25v15.44h-3.31Z"/>
    <path class="cls-2" d="M89.08,64.93v-12.63h3.15v2.22c.62-1.5,1.95-2.32,3.98-2.48l.98-.08.21,2.74-1.86.18c-2.12.21-3.18,1.29-3.18,3.25v6.79h-3.28Z"/>
    <path class="cls-2" d="M103.26,65.18c-.91,0-1.73-.18-2.44-.53-.71-.35-1.27-.83-1.68-1.43-.4-.6-.61-1.28-.61-2.04,0-.93.24-1.67.72-2.21.48-.54,1.27-.93,2.35-1.18,1.08-.24,2.54-.36,4.36-.36h.9v-.54c0-.86-.19-1.48-.57-1.86-.38-.38-1.02-.57-1.91-.57-.71,0-1.43.11-2.17.32-.74.22-1.49.55-2.25.99l-.93-2.2c.45-.31.98-.58,1.59-.81.61-.23,1.26-.41,1.94-.54.68-.13,1.32-.19,1.92-.19,1.84,0,3.21.43,4.11,1.28.9.85,1.34,2.17,1.34,3.96v7.64h-3.02v-2.01c-.29.71-.76,1.26-1.39,1.67-.64.4-1.39.61-2.27.61ZM103.93,62.96c.84,0,1.55-.29,2.1-.88.56-.59.84-1.33.84-2.22v-.57h-.88c-1.62,0-2.74.12-3.37.37-.63.25-.94.7-.94,1.36,0,.57.2,1.03.59,1.39.4.36.95.54,1.65.54Z"/>
    <path class="cls-2" d="M113.23,64.93v-12.63h3.15v1.96c.43-.72,1.01-1.27,1.74-1.65.73-.38,1.55-.57,2.47-.57,2.98,0,4.47,1.73,4.47,5.19v7.7h-3.23v-7.54c0-.98-.19-1.7-.56-2.14-.37-.45-.94-.67-1.72-.67-.95,0-1.7.3-2.26.89-.56.59-.84,1.38-.84,2.36v7.1h-3.23Z"/>
    <path class="cls-2" d="M132.96,65.18c-1.07,0-2.07-.13-3-.39-.93-.26-1.7-.63-2.32-1.11l.83-2.12c.64.43,1.35.76,2.14.99.79.23,1.58.35,2.38.35s1.44-.14,1.85-.43c.4-.28.61-.66.61-1.12,0-.72-.53-1.19-1.6-1.39l-2.58-.49c-2.19-.41-3.28-1.55-3.28-3.41,0-.83.23-1.54.68-2.14.46-.6,1.09-1.07,1.9-1.39.81-.33,1.74-.49,2.79-.49.9,0,1.76.13,2.58.37.83.25,1.53.62,2.12,1.12l-.88,2.12c-.5-.41-1.1-.74-1.79-.98s-1.36-.36-2-.36c-.84,0-1.47.15-1.87.44-.4.29-.61.68-.61,1.16,0,.76.49,1.22,1.47,1.39l2.58.49c1.12.21,1.97.59,2.54,1.14.58.55.87,1.29.87,2.22,0,1.26-.49,2.24-1.47,2.96-.98.71-2.29,1.07-3.93,1.07Z"/>
    <path class="cls-2" d="M140.94,69.58v-17.28h3.15v2.01c.36-.69.91-1.24,1.64-1.65.73-.41,1.56-.62,2.49-.62,1.1,0,2.07.27,2.91.8.83.53,1.49,1.29,1.95,2.26.46.97.7,2.14.7,3.5s-.23,2.51-.7,3.5c-.46.99-1.11,1.75-1.94,2.29-.83.53-1.8.8-2.92.8-.9,0-1.7-.19-2.41-.58-.71-.39-1.26-.91-1.64-1.56v6.53h-3.23ZM147.32,62.73c.96,0,1.74-.35,2.32-1.05.59-.7.88-1.73.88-3.09s-.29-2.41-.88-3.09c-.59-.68-1.36-1.02-2.32-1.02s-1.74.34-2.32,1.02c-.59.68-.88,1.71-.88,3.09s.29,2.39.88,3.09c.59.7,1.36,1.05,2.32,1.05Z"/>
    <path class="cls-2" d="M162.2,65.18c-1.31,0-2.45-.27-3.41-.8-.96-.53-1.71-1.3-2.25-2.29-.53-.99-.8-2.16-.8-3.5s.27-2.51.8-3.49c.53-.98,1.28-1.74,2.25-2.27.96-.53,2.1-.8,3.41-.8s2.44.27,3.41.8c.96.53,1.71,1.29,2.25,2.27.53.98.8,2.14.8,3.49s-.27,2.51-.8,3.5c-.53.99-1.28,1.75-2.25,2.29-.96.53-2.1.8-3.41.8ZM162.2,62.73c.96,0,1.74-.35,2.32-1.05.59-.7.88-1.73.88-3.09s-.29-2.41-.88-3.09c-.59-.68-1.36-1.02-2.32-1.02s-1.74.34-2.32,1.02c-.59.68-.88,1.71-.88,3.09s.29,2.39.88,3.09c.59.7,1.36,1.05,2.32,1.05Z"/>
    <path class="cls-2" d="M171.31,64.93v-12.63h3.15v2.22c.62-1.5,1.95-2.32,3.98-2.48l.98-.08.21,2.74-1.86.18c-2.12.21-3.18,1.29-3.18,3.25v6.79h-3.28Z"/>
    <path class="cls-2" d="M187.92,65.18c-3.34,0-5.01-1.65-5.01-4.96v-5.5h-2.43v-2.43h2.43v-3.77h3.23v3.77h3.82v2.43h-3.82v5.32c0,.83.18,1.45.54,1.86.36.41.95.62,1.76.62.24,0,.49-.03.75-.09s.53-.12.8-.19l.49,2.38c-.31.17-.7.31-1.18.41-.47.1-.93.15-1.38.15Z"/>
    <path class="cls-2" d="M198.17,65.18c-1.43,0-2.66-.27-3.69-.8-1.03-.53-1.83-1.29-2.39-2.27-.56-.98-.84-2.14-.84-3.49s.27-2.45.81-3.44c.54-.98,1.29-1.75,2.25-2.31.96-.56,2.04-.84,3.27-.84,1.79,0,3.21.57,4.25,1.7,1.04,1.14,1.56,2.69,1.56,4.65v.96h-9.04c.24,2.26,1.53,3.38,3.87,3.38.71,0,1.41-.11,2.12-.32.71-.22,1.35-.56,1.94-1.02l.9,2.17c-.6.5-1.36.9-2.27,1.19-.91.29-1.83.44-2.74.44ZM197.71,54.23c-.95,0-1.71.29-2.3.88-.59.59-.94,1.38-1.06,2.38h6.35c-.07-1.05-.36-1.85-.87-2.41-.51-.56-1.22-.84-2.13-.84Z"/>
  </g>
  <path class="cls-2" d="M104.97,23.57c.1.11.28.16.47.08.03.08.1.15.18.18.04.01.08.02.13.02.1,0,.2-.04.3-.12.12.17.42.22.73.22.18,0,.36-.01.52-.03.09,0,.16-.01.22-.01.39-.02.67-.1.88-.37.2.07.72.2,1.29-.58.16-.05.98-.35.84-1.24.12-.11.51-.52.28-1.05.03-.11.12-.51-.07-.69-.04-.08-.22-.45-.53-.52-.19-.04-.4.05-.6.25-.03.03-.12.12-.15.21-.18.11-.26.29-.28.36-.15.07-.23.22-.27.31-.26-.05-.56.01-.88.19-.22-.16-.47-.26-.75-.26h0c-.35,0-.7.16-.98.46-.36.4-.54.98-.49,1.53-.08,0-.15.02-.22.06-.12.08-.19.22-.2.38h0s0,0,0,0c-.15,0-.29.03-.39.13-.17.2-.13.38-.04.48M109.01,20.78c.38.14.53.56.53.57l.14-.05s-.17-.49-.61-.66c0,0,0,0,0,0,.04-.08.12-.21.27-.24.15-.03.4.05.81.57l.12-.09c-.34-.43-.63-.63-.89-.62.04-.07.11-.17.23-.21.18-.07.43,0,.73.2l.08-.12c-.27-.19-.51-.27-.72-.25.01-.01.02-.03.04-.04.16-.17.32-.24.46-.21.27.05.43.44.43.44v.02s.02.01.02.01c.14.12.07.46.03.58v.03s0,.03,0,.03c.24.52-.24.91-.27.93l-.04.03v.04c.18.87-.7,1.11-.74,1.12h-.03s-.02.03-.02.03c-.44.62-.89.62-1.11.57.36-.57.37-1.41.03-2.07-.1-.19-.22-.35-.35-.47.33-.16.61-.2.86-.11M105.11,23.2c.09-.08.21-.09.27-.08.06,0,.1-.01.12-.03.02-.02.05-.06.04-.11,0-.11.06-.21.13-.27.08-.05.18-.05.25,0l.14.11-.02-.17s0-.08.04-.12c.06-.05.16-.08.26-.06.06,0,.26.04.31.18l.05.18.08-.16c.09-.18.27-.24.4-.22.13.02.22.12.25.26l.15-.02c-.03-.21-.17-.35-.37-.38-.04,0-.07,0-.11,0,.04-.23.19-.78.64-.9.08.09.15.2.21.34.21.52.13,1.2-.2,1.59l.11.09c.36-.43.45-1.17.22-1.74-.16-.4-.45-.64-.82-.68-.29-.03-.58.1-.82.37-.22.25-.36.58-.4.94,0,.01,0,.05,0,.08-.02.01-.04.02-.05.04-.02.01-.03.03-.04.05-.03-.5.13-1.01.46-1.37.25-.27.55-.42.86-.41h0c.45,0,.85.27,1.09.75.33.63.31,1.42-.04,1.95-.13.26-.57.39-.82.39-.06,0-.14,0-.23.01-.35.03-1.01.08-1.13-.14l-.02-.04-.04-.11c-.1.12-.26.26-.42.21-.06-.02-.11-.09-.11-.16l.02-.16-.13.1c-.15.11-.3.08-.37,0-.07-.07-.05-.18.03-.28M106.2,22.32c.04-.34.17-.64.37-.87.2-.23.45-.34.69-.32.14.01.26.07.37.14-.51.2-.64.86-.66,1.05-.08.03-.16.09-.22.16-.08-.09-.2-.15-.36-.17-.05,0-.12,0-.18,0"/>
  <path class="cls-2" d="M96.22,21.73c-.14.88.68,1.19.84,1.24.37.51.75.62,1.03.62.18,0,.31-.05.37-.07.14.04.27.06.4.06.17,0,.33-.03.49-.09.04.04.11.08.25.08.14,0,.31,0,.46-.08.05.06.14.09.26.08.24,0,.48-.02.67-.14.04.03.1.05.18.05.36.02.73.03,1.09-.01.08,0,.15-.05.17-.11.02-.07-.01-.15-.09-.2-.01,0-.03-.02-.04-.03-.03-.01-.05-.03-.06-.04,0,0,0-.01,0-.02,0-.02-.02-.04-.04-.06l-.02-.02c-.11-.05-.26-.06-.4-.07-.06,0-.12-.01-.18-.02-.04-.14-.2-.24-.36-.25-.01,0-.04,0-.04,0,0,0-.01-.02-.02-.03,0,0-.01-.02-.02-.02-.06-.07-.13-.11-.21-.12.04-.54-.14-1.09-.49-1.48-.27-.3-.61-.46-.95-.46,0,0-.02,0-.03,0-.27,0-.53.09-.75.26-.33-.18-.62-.24-.89-.19-.04-.09-.12-.23-.27-.31-.02-.07-.1-.26-.28-.36-.03-.09-.12-.18-.15-.21-.2-.21-.4-.29-.6-.25-.32.06-.5.43-.53.52-.19.19-.1.58-.07.69-.22.53.16.94.28,1.05M101.03,22.68v.02s.05.05.08.07c.04.02.08.03.12.03.1,0,.21.07.22.16v.06s.06.01.06.01c.07.01.16.02.24.03.12.01.25.02.34.06,0,0,0,0,0,0,0,.01.01.02.02.03.03.05.08.07.11.09.01,0,.02.01.03.02.02.02.03.03.03.03,0,0-.01,0-.04,0-.35.05-.72.03-1.07.01-.07,0-.1-.02-.1-.03l-.03-.11-.09.08c-.16.14-.39.15-.63.16-.07,0-.15-.01-.16-.05l-.02-.11-.09.06c-.12.08-.27.09-.45.09-.08,0-.14-.01-.15-.04l-.02-.08-.08.04c-.09.04-.18.07-.29.08-.36-.36-.49-1.03-.31-1.59.04-.12.11-.29.24-.43.47.13.61.76.65.97h-.1s0,.15,0,.15l.69-.03c.07,0,.12,0,.15.02.07.06.14.09.2.09.04,0,.08,0,.13,0,.12,0,.24,0,.31.08M99.13,21.28c.1-.07.22-.13.37-.14.2-.03.42.06.61.24.28.26.45.67.45,1.06-.02,0-.04-.02-.06-.04-.08-.06-.18-.05-.25-.05l-.44.02c-.03-.21-.17-.87-.67-1.08M99.47,20.68h0c.31,0,.62.14.86.41.32.35.49.87.45,1.36-.02,0-.04,0-.07,0,0,0-.02,0-.03,0,0-.43-.18-.89-.49-1.19-.22-.21-.48-.31-.73-.28-.4.05-.71.33-.86.79-.16.5-.11,1.19.26,1.65-.16,0-.32-.01-.47-.05-.34-.53-.36-1.32-.04-1.95.25-.48.64-.75,1.09-.75M96.09,20.67c-.04-.12-.1-.46.03-.58h.01s0-.03,0-.03c0,0,.16-.39.43-.44.14-.03.3.04.46.21.01.01.02.02.03.04-.2-.02-.44.06-.72.25l.08.12c.3-.2.54-.27.72-.2.12.04.19.14.23.22-.26,0-.55.2-.89.62l.12.09c.41-.52.67-.59.81-.57.14.03.22.16.26.24,0,0,0,0,0,0-.44.17-.61.63-.61.65l.14.05s.15-.42.53-.56c.24-.09.53-.05.86.11-.14.13-.25.28-.35.47-.34.66-.33,1.5.03,2.07-.22.05-.67.05-1.11-.56l-.02-.02h-.03s-.92-.25-.75-1.12v-.04s-.03-.03-.03-.03c-.02-.02-.51-.41-.27-.93v-.03s0-.03,0-.03Z"/>
  <path class="cls-2" d="M103.3,22.95c0,.25-.03.51-.08.78v.03s.01.03.01.03c0,0,.16.21.43.31l.09.03v-.09s.1-.7.02-1.42c.91-.28,1.19-1.19,1.27-1.57.05-.23.03-.24,0-.26l-.03-.03-.04.02c-.77.3-1.13.86-1.29,1.29-.06-.23-.14-.43-.24-.6.74-.08,1.32-.71,1.32-1.47,0-.43-.19-.82-.48-1.08l.37-.45-.69.08-.21-.35-.35.22-.28-.23-.14.29-.62-.24.17.51c-.48.28-.71.79-.71,1.26,0,.61.37,1.27,1.17,1.44.03.04.2.29.28.81-.26-.4-.73-.86-1.52-1h-.06s-.02.05-.02.05c-.02.06.16.47.34.76.24.37.66.82,1.29.89M103.74,22.37c.1-.38.38-1.06,1.17-1.41-.06.33-.3,1.27-1.2,1.53l.03-.12ZM104.31,18.65l-.14.17c-.06-.05-.13-.09-.2-.13l.33-.04ZM104.62,20c0,.6-.4,1.1-.94,1.27.87-1.17.26-2.17-.05-2.55.57.15.99.67.99,1.28M103.7,18.4l.14.24c-.12-.05-.24-.08-.37-.1l.23-.14ZM103.17,18.41l.14.11s-.01,0-.02,0c-.06,0-.12,0-.18.01l.06-.13ZM102.87,18.59c-.08.02-.15.05-.22.08l-.06-.19.28.11ZM101.96,20c0-.54.33-1.14,1.03-1.29-.31.37-.94,1.37-.07,2.56-.66-.18-.96-.75-.96-1.27M103.22,18.68s.04,0,.07,0c.04,0,.07,0,.11,0,.15.14,1.21,1.26.06,2.64-.05,0-.11.01-.17.01-.05,0-.1,0-.15-.01-1.14-1.38-.07-2.49.08-2.64M103.17,21.46s.06,0,.1,0c.15.22.27.52.33.89l.02.15v.06c.08.57.04,1.13.01,1.35-.13-.07-.22-.16-.26-.2.05-.3.07-.58.08-.84v-.07s0-.23,0-.23h0c-.03-.59-.18-.94-.27-1.12M103.31,22.62l.09.19h0c-.95-.07-1.41-1.05-1.54-1.39.87.2,1.28.83,1.46,1.2"/>
  <path class="cls-2" d="M98.28,8.96c-.06-.07-.06-.2-.02-.29.01-.03.03-.05.05-.07,0,0,0,0,.01,0-.09.04-.21,0-.25-.09-.05-.11.02-.25.13-.29-.09.02-.18.07-.27.1-.09.03-.2.04-.27-.02-.07-.06-.08-.17-.05-.25.03-.09.1-.16.16-.22-.15.03-.28.18-.42.13-.14-.05-.16-.25-.08-.38.08-.13.21-.22.29-.34-.22.1-.45.19-.69.24-.08.02-.18.03-.25-.02-.05-.04-.04-.12,0-.16l-.33.11c-.08.03-.16.05-.24.03-.08-.02-.14-.12-.09-.19-.12.07-.25.15-.39.13-.08,0-.14-.05-.19-.12-.05-.09-.01-.13.06-.19-.13.05-.27.22-.22.37.03.11.16.17.27.16.11-.01.22-.07.31-.13-.04.03.08.16.1.17.08.06.2.08.29.05.06-.01.11-.03.16-.06.02,0,.15-.07.15-.09,0,.07.1.09.18.09.15,0,.3,0,.44-.01-.11.09-.13.26-.07.38.07.12.23.19.36.15-.11.13-.02.35.14.4.14.04.29-.02.39-.13-.01.02-.02.04-.03.06-.01.02-.02.04-.03.06-.02.04-.02.09-.02.14,0,.04.02.08.05.11.02.03.05.06.09.07.02,0,.04.01.06.01.05,0,.08-.02.12-.05-.03.04-.05.08-.07.13-.02.04-.04.09-.05.14-.02.12.08.21.19.23.06,0,.13,0,.18-.03.12-.07.19-.21.25-.34-.09.13-.31.13-.41.01"/>
  <path class="cls-2" d="M92.71,7.44c.09-.02.17-.08.25-.13.02-.01.05-.03.07-.01.02.01.02.04.02.07.01.11.12.19.24.2s.22-.04.32-.1c0,.02,0,.04,0,.06.05.07.14.11.22.11.09,0,.17-.02.26-.05.11-.03.22-.07.28-.16-.05.05-.12.11-.2.1-.08-.01-.13-.11-.12-.19s.07-.15.12-.22c-.15.09-.3.16-.47.2-.07.02-.14.03-.21.02-.07-.02-.13-.08-.12-.15,0-.04.03-.07.05-.1.04-.04.09-.08.15-.11-.13.05-.27.11-.4.16-.1.04-.2.08-.31.07-.11,0-.22-.08-.23-.18,0-.04,0-.08.02-.12-.02.01-.04.02-.05.03-.07.05-.13.11-.17.19-.04.08-.04.18.02.24.06.07.17.09.26.06"/>
  <path class="cls-2" d="M99.45,5.09s-.03.01-.04.01c-.01,0-.02,0-.04.01-.05.02-.1.03-.15.03-.08,0-.17-.05-.18-.13-.01-.05,0-.11-.02-.16-.03-.04-.09-.04-.15-.03-.12.02-.37.2-.47.05-.02-.02-.02-.06-.01-.08,0-.02,0-.04.02-.06-.11.09-.22.12-.34.19-.12.06-.24.12-.37.17-.07.03-.18.05-.23-.02-.07-.09,0-.23.07-.3.07-.08.07-.08.15-.13-.32.13-.6.2-.94.32-.34.12-.69.27-.95.52-.04.04-.08.08-.09.14-.01.06.02.12.07.14-.38.12-.72.38-.94.72-.04.07-.08.17-.02.23.03.03.07.03.11.03.11,0,.22-.04.32-.1-.06-.04-.07-.14-.05-.21.02-.07.08-.13.14-.18.22-.2.48-.37.76-.48-.04.02-.09-.03-.09-.07,0-.05.03-.09.06-.12.03-.03.05-.06.08-.09.13-.13.28-.23.45-.31.17-.09.36-.15.54-.21.03,0,.05-.02.08-.02,0,0,.07-.02.07-.02-.06.17-.07.43.18.43.25,0,.51-.11.67-.31-.05.08-.1.19-.04.26.05.07.16.07.24.05.2-.05.39-.14.54-.28-.06.08-.12.2-.05.27,0,0,.02.02.03.02.04.02.1.02.14,0,.07-.01.14-.03.2-.06.08-.04.16-.09.23-.15,0,0,.05-.04.03-.05"/>
  <path class="cls-2" d="M94.28,9.17c-.3.15-.62.26-.95.32-.1.02-.24,0-.25-.09,0-.04.02-.09.04-.12.11-.17.27-.31.44-.41-.29.14-.6.24-.92.29-.13.02-.31,0-.31-.14,0-.05.03-.1.07-.14.12-.15.27-.28.44-.38-.26.17-.56.31-.86.4-.12.04-.27.06-.38-.01-.07-.05-.08-.17-.04-.23-.18.1-.39.16-.6.15-.04,0-.08,0-.11-.03-.1-.09.02-.26.1-.35-.12.12-.24.24-.33.39-.05.08-.08.2,0,.25.03.02.07.02.1.02.07,0,.15,0,.22-.02.04,0,.09-.02.13-.03.05-.01.1-.03.15-.05.02-.01.13-.04.14-.07-.07.17.12.36.31.37.19,0,.36-.1.52-.21-.06.09,0,.22.1.27.1.05.21.03.32,0,.19-.04.37-.09.54-.17-.07.17-.32.3-.23.46.03.07.12.09.19.11.3.05.61-.01.86-.18.05-.04.11-.08.18-.08.05,0,.1.04.14.06.1.04.22.03.31-.02-.18.01-.35-.17-.32-.35"/>
  <path class="cls-2" d="M90.32,10.38s0-.09.02-.13c0-.01.02-.02.02-.04-.02,0-.03.02-.05.03-.02.01-.03.02-.05.03-.04.02-.07.04-.11.05-.08.03-.16.05-.24.06-.05,0-.11,0-.16,0-.03,0-.06,0-.08-.01-.02,0-.05,0-.06-.02-.02-.02-.03-.05-.03-.08,0-.03,0-.06,0-.09,0,0,0-.02,0-.02.01-.02.02-.05.04-.07.02-.02.03-.04.05-.06-.17.11-.37.2-.58.24-.03,0-.07.01-.09,0-.06-.04-.03-.13,0-.18.17-.27.38-.5.61-.71-.25.16-.48.36-.68.58-.08.09-.17.21-.13.32.03.1.15.15.26.15.11,0,.21-.06.3-.11.02-.01.05-.03.07-.04.02-.01.05-.02.07-.03-.03.08-.04.16-.04.24,0,.04.01.07.03.1.02.03.05.05.08.06.04,0,.08,0,.12-.01.05-.01.11-.03.16-.05.08-.03.16-.07.23-.11.05-.03.1-.07.15-.12,0,0,.02-.02.03-.02,0,.01,0,.03,0,.04,0,.02-.01.03-.01.05,0,.04,0,.07,0,.11.02.04.05.08.09.1.02.01.04,0,.06.01.02,0,.04,0,.07,0,.08,0,.15-.05.21-.1.19-.14.35-.32.44-.53-.21.15-.44.28-.68.38-.03.01-.13.04-.14,0"/>
  <path class="cls-2" d="M111.17,7.06c.07.06.11.1.06.19-.04.07-.1.11-.19.12-.14.02-.27-.06-.39-.13.04.07-.02.16-.09.19-.08.02-.16,0-.24-.03l-.33-.11s.04.12,0,.16c-.07.05-.16.04-.25.02-.24-.06-.47-.14-.69-.24.08.12.22.21.29.34.08.13.06.34-.08.38-.14.05-.27-.1-.42-.13.06.07.13.14.16.22.03.09.02.2-.05.25-.07.06-.18.05-.27.02-.09-.03-.17-.08-.26-.1.11.04.18.18.13.29-.04.09-.16.13-.25.09,0,0,0,0,.01,0,.02.02.04.04.05.07.04.08.04.21-.02.29-.1.12-.32.11-.41-.01.06.13.13.27.25.34.05.03.12.04.18.03.11-.02.21-.11.19-.23,0-.05-.02-.1-.05-.14-.02-.04-.05-.09-.07-.13.03.03.07.05.12.05.02,0,.04,0,.06-.01.04-.01.06-.04.09-.07.02-.03.04-.07.05-.11,0-.05,0-.09-.02-.14,0-.02-.02-.04-.03-.06,0-.02-.02-.04-.03-.06.1.11.25.18.39.13.16-.05.26-.28.14-.4.14.04.3-.03.36-.15.07-.12.04-.29-.07-.38.15,0,.3,0,.44.01.07,0,.17-.02.18-.09,0,.02.13.08.15.09.05.03.1.05.16.06.09.02.21,0,.29-.05.02-.01.14-.15.1-.17.1.06.2.12.31.13.11.01.24-.05.27-.16.04-.15-.09-.32-.22-.37"/>
  <path class="cls-2" d="M112.44,7.53c-.08.01-.14-.05-.2-.1.06.09.17.13.28.16.08.03.17.05.26.05.09,0,.18-.04.22-.11,0-.02,0-.04,0-.06.09.06.2.11.32.1.11,0,.23-.09.24-.2,0-.02,0-.05.02-.07.02-.01.05,0,.07.01.08.05.16.1.25.13.09.02.2,0,.26-.06.05-.07.05-.16.02-.24-.04-.08-.1-.14-.17-.19-.02-.01-.04-.02-.05-.03.02.04.03.08.02.12-.01.1-.13.18-.23.18-.11,0-.21-.03-.31-.07-.13-.05-.27-.11-.4-.16.05.03.1.06.14.11.03.03.05.06.05.1,0,.07-.05.13-.12.15-.07.02-.14,0-.21-.02-.16-.05-.32-.11-.47-.2.05.06.11.13.12.22.01.08-.04.18-.12.19"/>
  <path class="cls-2" d="M107.2,5.14c.07.06.14.12.23.15.06.03.13.05.2.06.05,0,.1.01.14,0,.01,0,.02-.01.03-.02.07-.07.01-.19-.05-.27.15.14.34.23.54.28.08.02.19.02.24-.05.06-.08,0-.18-.04-.26.17.19.42.31.67.31.25,0,.24-.25.18-.43,0,0,.06.02.07.02.03,0,.05.02.08.02.18.06.37.13.54.21.16.08.32.18.45.31.03.03.06.06.08.09.03.04.06.08.06.12,0,.05-.05.09-.09.07.28.11.54.28.76.48.06.05.11.11.14.18.02.07.01.16-.05.21.09.06.2.1.32.1.04,0,.08,0,.11-.03.06-.05.03-.16-.02-.23-.21-.34-.55-.6-.94-.72.06-.01.09-.08.07-.14-.01-.06-.05-.1-.09-.14-.26-.25-.61-.4-.95-.52-.34-.12-.7-.21-1.03-.37.09.05.17.11.24.19.06.07.14.22.07.3-.06.07-.16.05-.23.02-.12-.05-.25-.11-.37-.17-.12-.06-.23-.1-.34-.19,0,.02.01.04.02.06,0,.03,0,.06-.01.08-.1.15-.35-.02-.47-.05-.05-.01-.12,0-.15.03-.03.04-.01.1-.02.16-.02.08-.1.13-.18.13-.05,0-.1-.01-.15-.03-.01,0-.02,0-.04-.01,0,0-.03-.02-.04-.02-.01,0,.03.04.03.05"/>
  <path class="cls-2" d="M112.33,9.54s.09-.05.14-.06c.07,0,.12.04.18.08.25.17.56.24.86.18.08-.01.16-.04.19-.11.08-.16-.17-.29-.23-.46.18.07.36.13.54.17.11.02.22.04.32-.01.1-.05.16-.18.1-.27.16.11.33.22.52.21.19,0,.38-.19.31-.37,0,.02.11.06.14.07.05.02.1.04.15.05.04.01.09.02.13.03.07.01.15.02.22.02.04,0,.07,0,.1-.02.08-.05.05-.17,0-.25-.09-.15-.21-.27-.33-.39.08.09.2.26.1.35-.03.03-.07.03-.11.03-.21.01-.42-.04-.6-.15.04.07.03.18-.04.23-.11.08-.25.05-.38.01-.3-.09-.6-.23-.86-.4.17.1.31.23.44.38.03.04.07.09.07.14,0,.13-.19.16-.31.14-.32-.05-.63-.14-.92-.28.18.1.33.24.44.41.02.04.05.08.04.12-.02.1-.15.11-.25.09-.33-.06-.65-.17-.95-.32.03.18-.14.36-.32.35.09.06.21.07.31.02"/>
  <path class="cls-2" d="M115.92,10.54c.06.05.14.09.21.1.02,0,.04,0,.07,0,.02,0,.04,0,.06-.01.04-.02.07-.06.09-.1.01-.03.01-.07,0-.11,0-.02,0-.04-.01-.05,0-.01,0-.03,0-.04.01,0,.02.02.03.02.05.04.09.08.15.12.07.05.15.08.23.11.05.02.11.04.16.05.04,0,.08.02.12.01.03,0,.06-.03.08-.06.02-.03.03-.07.03-.1,0-.08,0-.16-.04-.24.02.01.05.02.07.03.02.01.05.03.07.04.09.05.19.11.3.11.11,0,.23-.04.26-.15.04-.12-.04-.23-.13-.32-.2-.22-.43-.42-.68-.58.23.21.44.44.61.71.04.06.07.15,0,.18-.03.02-.06.01-.1,0-.21-.04-.4-.13-.58-.24.02.02.04.04.06.06.02.02.02.05.04.07,0,0,0,.02,0,.02,0,.03,0,.06,0,.09,0,.03-.01.06-.03.08-.02.02-.04.02-.06.02-.03,0-.06,0-.08.01-.05,0-.11,0-.16,0-.08,0-.16-.03-.24-.06-.04-.02-.07-.03-.11-.05-.02-.01-.03-.02-.05-.03-.01,0-.03-.03-.05-.03,0,.01.02.03.02.04.02.04.03.09.02.13-.01.04-.11.02-.14,0-.24-.1-.47-.22-.68-.38.1.21.25.4.45.53"/>
  <path class="cls-2" d="M102.82,15.25c-.58-.08-.76-.69-.76-.69l-.14.23c.39.55.91.46.91.46"/>
  <path class="cls-2" d="M101.64,6.02c-.1,0-.18.08-.18.18s.08.18.18.18.18-.08.18-.18-.08-.18-.18-.18M101.64,6.28s-.08-.04-.08-.08.04-.08.08-.08.08.04.08.08-.04.08-.08.08"/>
  <path class="cls-2" d="M122.55,17.14c-.06-.09-.16-.14-.27-.13l-2.43.53-.26,1.31-.64.42c0-1.12-.06-2.3-.15-3.51l1.29.28,1.44-1.99c.07-.1.07-.23,0-.33-.06-.09-.16-.14-.27-.13l-2.43.53-.26,1.31-5.82,3.81c-.03-.5-.06-1.01-.11-1.53,0-.02,0-.03,0-.04.14.02.28.03.4.03.32,0,.6-.06.84-.22.81-.52,1.06-2.09,1.1-2.4v-.04s-.08-.05-.08-.05c-.15-.1-.52-.39-.62-.81.13.01.26.04.39.09.11.04.23.1.35.16.33.16.73.35,1.2.35.16,0,.32-.02.5-.07.76-.26,1.07-.64,1.08-.65l.08-.11-.95-.08.3-.88-.19.14s-.45.33-.66.41h-.04c-.18.07-.38.14-.97-.1-.36-.15-.67-.2-.94-.17-.34.04-.58.25-.79.43-.21.18-.46.41-.54.69v.04s-.03.09-.03.14v.02s0,0,0,0c0,.09,0,.18,0,.27.02.13.05.26.11.38.04.09.09.19.15.27,0,0,0,0,0,0-.59,0-1.39-.11-2.48-.45-.79-.25-1.57-.37-2.32-.37h0c-1.07,0-1.97.24-2.7.57,0-.02,0-.05-.01-.07-.02-.06-.05-.11-.09-.16-.09-.14-.17-.29-.19-.45-.03-.19,0-.37.04-.56.04-.27.02-.51-.05-.75-.04-.15-.11-.27-.21-.37-.04-.04-.08-.09-.11-.14-.02-.02-.03-.04-.05-.06.09-.15.14-.29.14-.45,0-.01.02-.04.03-.06v-.02s.04-.04.06-.06c.02-.03.05-.06.07-.1.05-.09.07-.19.06-.3v-.17s.05-.03.07-.05c.08.18.23.29.42.3.19,0,.4-.09.54-.25.03.05.08.09.14.11.16.06.31-.04.36-.08.14-.09.27-.19.37-.33.06.02.11.02.15.01.19-.03.29-.22.36-.36v-.03c.04-.07.05-.08.07-.09.14-.07.2-.2.24-.32.02,0,.04,0,.06-.02.06-.03.1-.02.15.02.08.07.2.07.29.03.08.08.18.11.28.1.07-.01.13-.04.19-.09.02.02.05.04.09.05.06.02.1.07.16.15l.02.03c.14.18.28.22.38.22.08,0,.19-.03.3-.13.16.1.29.1.37.08.09-.02.22-.09.31-.29.07-.17.12-.32.13-.47.09,0,.17-.04.23-.11.02.02.04.04.06.05.03.03.06.05.08.07.17.12.35.22.53.31.06.03.13.06.21.07.07,0,.13,0,.18-.02.02.01.05.03.08.06.51.36.82.53,1.04.4.03-.02.06-.04.09-.09.3.21.61.42.97.55.08.03.15.03.23,0,.06-.02.1-.05.13-.08.08.05.16.11.24.17.27.2.55.4.87.52.19.09.31.05.39,0,.1-.06.15-.16.17-.27.17.15.35.3.62.38h.02c.14.03.24,0,.31-.06.21.16.42.33.67.45.12.06.26.04.36-.04.05-.04.08-.09.1-.13.2.09.39.19.56.31.08.06.3.21.52.07.05-.03.09-.08.12-.15.11.09.22.18.34.25.1.08.42.29.64.17.05-.03.12-.08.14-.2.07.04.14.09.22.13.11.06.22.14.34.22.24.16.49.33.8.4h.02s.03,0,.05,0c.07,0,.13-.02.18-.06.07-.06.1-.15.09-.26-.04-.43-.32-.73-.56-1-.64-.71-1.39-1.34-2.12-1.95-.27-.23-.56-.47-.83-.7-1.85-1.62-3.77-3.08-5.86-4.49-1.84-1.23-3.7-1.9-5.54-1.99-.79-.04-1.41.06-1.9.31-1.13.59-.77,1.81-.5,2.71l.02.08c.16.48.18.83.06,1.02-.05.08-.12.13-.22.17,0,0,0,0,0,0l-.03-.02c-.47-.54-1.21-.5-1.43-.48-.09-.05-.17-.11-.21-.15.02-.34-.05-.65-.21-.9-.05-.08-.12-.16-.19-.23,0,0,0,0,0,0,0,0,0,0,0-.02,0-.12-.06-.24-.15-.32-.1-.1-.25-.15-.41-.15-.14,0-.27.05-.37.09h-.03c-.08.05-.17.08-.22.06-.01,0-.03-.01-.04-.02.1-.58,0-1.11-.3-1.46-.54-.64-1.58-.72-2.36-.67-1.84.09-3.7.76-5.54,1.99-2.09,1.4-4.01,2.87-5.86,4.49-.27.24-.55.47-.83.7-.73.61-1.48,1.24-2.13,1.96-.24.27-.52.57-.56,1-.02.18.08.26.12.28.04.03.1.04.16.04.14,0,.34-.08.57-.23.13-.09.27-.17.4-.25.11-.07.22-.13.33-.21.04-.03.11-.02.13.03.04.06.09.1.12.12.2.1.47-.04.87-.36.04-.03.1-.03.13.01.02.03.05.06.08.08.22.14.43-.02.52-.08.15-.11.31-.19.49-.28.04-.02.09,0,.11.03.02.02.04.04.06.06.1.08.24.09.36.04.23-.1.42-.25.61-.4.02-.02.04-.03.06-.05.07.06.16.09.31.07h.02c.22-.07.38-.18.52-.29.05-.04.12-.02.14.03.03.06.07.11.13.15.07.05.2.08.38,0,.33-.13.61-.33.88-.53.08-.06.16-.12.24-.17.03.03.08.06.13.08.07.02.15.02.23,0,.33-.12.62-.3.9-.5.04-.03.08-.02.12,0,.04.03.08.05.13.07.22.05.51-.12.95-.42.04-.03.07-.05.09-.06.04.01.1.03.18.02h.03c.23-.07.42-.19.61-.31l.1-.07s.05-.04.08-.07c.01-.01.04-.03.06-.05.05.05.11.09.18.1.04,0,.06.04.07.08.04.26.15.57.38.67.07.03.21.06.37-.03.03-.02.07-.01.1,0,.09.07.18.09.25.09.1,0,.24-.04.38-.22l.02-.03c.06-.09.1-.13.16-.15.03-.01.06-.03.09-.05.05.05.12.08.19.09.11.02.21-.02.28-.09.09.04.2.04.29-.03.05-.04.09-.05.15-.02.02,0,.04.01.06.02.04.11.1.25.24.32.02,0,.03.02.06.09v.03c.08.14.18.32.37.35.05,0,.11,0,.18-.02,0,0,0,0,0,.01l.02.1.09-.06c.14-.09.27-.25.37-.44.05.22.13.43.25.61-.4.33-.61.87-.52,1.36l.02.1.09-.05c.15-.09.29-.25.39-.45.04.28.15.54.31.76-.4.42-.49.91-.36,1.37l.03.1.09-.06c.13-.1.25-.26.34-.46.02.14.06.27.11.39.11.26.09.32.31.49-.04.06-.07.12-.11.19-.71-.3-1.56-.52-2.56-.52h0c-.75,0-1.53.12-2.32.37-1.09.34-1.89.45-2.48.45,0,0,0,0,0,0,.06-.09.1-.18.15-.27.05-.12.09-.25.11-.38.01-.09.01-.18,0-.27h0s0-.02,0-.02c0-.05-.01-.09-.03-.14v-.04c-.09-.28-.34-.51-.55-.69-.21-.18-.45-.39-.79-.43-.27-.03-.58.02-.94.17-.59.24-.79.17-.97.11h-.04c-.21-.09-.65-.42-.66-.42l-.19-.14.3.88-.95.08.08.11s.32.4,1.08.65c.18.05.34.07.5.07.48,0,.87-.19,1.2-.35.13-.06.24-.12.35-.16.13-.05.26-.08.38-.09-.1.42-.47.71-.62.81l-.08.05v.04c.05.31.3,1.88,1.11,2.4.24.16.52.22.84.22.12,0,.25,0,.38-.03-.05.53-.09,1.05-.11,1.57l-5.81-3.81-.26-1.31s-2.43-.53-2.43-.53c-.11,0-.21.04-.27.13-.07.1-.06.23,0,.33l1.44,1.99,1.29-.28c-.09,1.21-.14,2.39-.15,3.51l-.64-.42-.26-1.31s-2.43-.53-2.43-.53c-.1,0-.21.04-.27.13-.07.1-.06.23,0,.33l1.44,1.99,1.25-.27c-.89,6.71.11,11.27,1.11,13.91,1.03,2.72,2.24,4.02,2.44,4.21.33.38,2.48,2.72,5.82,2.72,1.44,0,3.1-.44,4.92-1.67-.57,1.87-2.03,4.07-2.05,4.09l-.08.12h.14c.66-.03,1.18.03,1.58.11l-.25,1.01c-.03.09-.03.17-.03.17,0,.05.01.16.11.25.15.14.43.18.83.11.18-.03.32-.03.43-.02l.04,1.06s0,.04,0,.06c0,.02.01.05.03.08.13.2.61.3,1.42.3s1.28-.1,1.41-.3c.03-.05.04-.1.03-.14l.04-1.06c.11-.01.25,0,.43.02.4.07.68.03.83-.11.1-.09.12-.2.11-.25,0-.02,0-.05,0-.07,0-.06-.03-.13-.04-.19-.02-.1-.05-.2-.07-.31-.03-.12-.06-.24-.09-.36-.02-.08-.04-.16-.06-.23,0,0,0-.01,0-.02.4-.08.92-.13,1.58-.11h.14s-.08-.11-.08-.11c-.02-.02-1.48-2.23-2.05-4.1,1.83,1.24,3.49,1.68,4.93,1.68,3.33,0,5.51-2.36,5.84-2.74.05-.05,1.31-1.29,2.41-4.2,1-2.65,2-7.21,1.11-13.91l1.25.27,1.44-1.99c.07-.1.07-.23,0-.33M119.17,14.44l1.88-.41-1.12,1.56-.94-.2.19-.94ZM86.84,15.59l-1.12-1.56,1.87.41.19.94-.94.2ZM85.82,19.02l-1.12-1.56,1.87.41.19.94-.94.2ZM115.74,17.74l2.67-1.75c.09,1.22.14,2.41.14,3.53l-3.04,1.99c.13-1.14.2-2.38.23-3.77M112.77,19.68l1.27-.83c-.06,1.4-.17,2.67-.35,3.86l-.99.65c.09-1.16.12-2.38.07-3.67M112.65,23.86l1.58-1.03c-.09,2.17-.38,4.34-1.06,6.41-.34,1.06-.79,2.08-1.33,3.07-.53.97-1.17,1.89-1.88,2.75-.37.45-.76.88-1.17,1.29-.29-.28-.51-.53-.65-.7,2.1-2.62,3.99-6.49,4.51-11.78M105.73,35.54c-.04-.07-.11-.09-.17-.11h-.03s-.06-.05-.06-.05c0,0,.02-.02.04-.03.02-.01.04-.03.06-.05.08-.11.08-.23,0-.34-.11-.16-.35-.24-.51-.19-.07.02-.14.05-.2.08-.03.02-.06.03-.1.05-.04.02-.16.06-.23,0-.02-.02-.04-.04-.07-.07-.03-.04-.06-.08-.11-.11-.07-.04-.15-.05-.21-.05l-.86-.05c-.11-.01-.18.03-.23.12-.02.02-.06.02-.11.02-.05,0-.1,0-.16.01-.09.03-.14.1-.19.17-.03.04-.06.07-.09.1-.08.06-.2.04-.32.03-.06,0-.12-.02-.17-.02-.16,0-.39.07-.5.22-.07.09-.09.19-.06.3,0,.02.02.04.03.06,0,.01.02.02.02.04.02.04,0,.1-.04.14-.05.05-.13.06-.22.07-.1.01-.21.02-.3.11-.03.03-.04.06-.06.09-.01.03-.03.05-.04.07-.01.01-.04.02-.06.04-.02.01-.05.02-.07.04-.16.11-.16.3-.16.47,0,.07,0,.13,0,.18-1.36-1.3-2.75-3.12-3.85-5.5h1.12s.05.1.07.15c.16.34.32.7.63.94.08.09.14.19.2.31.06.1.12.21.2.31.12.14.27.24.41.34.4.27.86.58,1.38.69.13.03.25.04.38.05.15.02.3.03.44.07.1.03.2.06.31.1.08.03.17.06.26.09.32.1.66.11.99.12.55.02,1.12.04,1.67-.1l.08-.02c.27-.07.55-.15.74,0,.07.06.13.15.19.24.1.16.2.32.41.34.05,0,.06,0,.06,0,.01.01.01.07.01.1,0,.03,0,.06,0,.09.02.1.09.18.2.21.03,0,.06.01.09.01.09,0,.18-.04.24-.11.14-.17.07-.43-.08-.56h-.01s-.03-.04-.03-.05c0,0,0-.03.03-.08.21-.3.55-.49.92-.53.03,0,.06,0,.08,0,.13,0,.26-.02.37-.09l.11-.07-.11-.06c-.08-.04-.15-.09-.22-.14.27-.15.56-.2.88.16-.83,1.26-1.72,2.3-2.6,3.11-.02-.03-.03-.07-.04-.12v-.02s-.04-.06-.05-.08c-.01-.02-.02-.03-.03-.05,0-.02,0-.05-.01-.08,0-.03,0-.06,0-.08-.03-.15-.15-.26-.35-.33-.05-.02-.07-.03-.08-.04.01-.06.06-.13.1-.2.08-.13.18-.27.11-.45M101.34,17.52c-2.34.82-4.19.25-5.28-.33.23-.06.46-.13.71-.19,2.14-.41,3.73-.06,4.58.22-.01.1-.02.2,0,.3M102.16,17.61c.13.18.29.33.48.43l.09.05.02-.1c.03-.19,0-.4-.06-.63.15-.08.31-.17.47-.26.03.08.07.16.11.23l.06.09.07-.09c.06-.08.11-.17.15-.27,1.53.92,2.93,1.24,4.13,1.24,1.47,0,2.64-.48,3.39-.91,0,0,.07-.04.12-.07.3.08.58.16.84.22,0,.05,0,.1,0,.12.24,2.5.2,4.76-.05,6.79h-17.23c-.26-2.07-.31-4.37-.06-6.91.27-.06.55-.14.86-.22,1.23.73,3.65,1.58,6.6.28M100.72,12.37h0s-.01-.05-.02-.07c.15.13.32.23.5.28l.1.03v-.1c-.02-.22-.14-.47-.32-.68h0c-.12-.14-.31-.29-.51-.37.03-.12.04-.25.03-.38l.51.39.14.2v.41s.05.07.08.1c.01.02.03.04.04.06v.02s.04.04.04.06c0,.16.05.3.14.45-.02.02-.03.04-.05.06-.04.05-.07.09-.11.14-.09.1-.15.2-.19.33-.14-.11-.3-.22-.36-.25.03-.2.03-.43-.02-.66M100.91,6.75c0,.1-.02.2-.04.29-.03.16-.09.32-.16.47-.12.23-.29.42-.46.53,0-.37.14-.74.38-1.02.09-.1.18-.19.28-.26M100.8,6.49c-.29-.04-.54.04-.74.24,0,0,0,0,0,0,0-.08.02-.14.05-.2.03-.05.05-.1.08-.14.07-.09.15-.16.26-.22.06-.03.13-.05.19-.05.06,0,.11,0,.17.02.06.01.09.06.11.13.01.06,0,.09-.03.2,0,0,0,0-.01,0-.02,0-.04,0-.06,0M100.36,9.16h0c0-.06,0-.12,0-.19.13.18.3.32.5.4l.1.04v-.1c.02-.22-.06-.48-.21-.72h0c-.1-.15-.25-.31-.42-.42.2-.12.38-.33.52-.59h0c.07-.15.13-.31.16-.47.05.18.13.34.21.47.14.23.34.42.57.54-.25.44-.27.98-.05,1.39l.05.09.07-.08c.13-.15.21-.37.25-.62.13.28.33.51.58.67-.08.07-.16.17-.23.26-.21.29-.31.67-.26,1.02l.02.1.09-.05c.18-.09.34-.29.46-.54.05.31.18.59.37.82-.19.12-.35.28-.46.47-.13.21-.2.46-.2.72v.1l.1-.03c.17-.06.34-.2.47-.38-.02.32.05.63.19.91-.09.04-.19.09-.28.16-.29.2-.5.53-.56.88l-.02.1h.1c.18-.04.37-.15.54-.31-.08.37-.04.77.12,1.1-.11.13-.21.27-.29.44-.16.32-.21.69-.16,1.03-.22-.19-.49-.41-.82-.63-.02-.09-.05-.17-.08-.23h0s-.04-.07-.06-.11c.13.05.27.08.4.08.04,0,.07,0,.11,0h.1s-.04-.1-.04-.1c-.08-.2-.26-.4-.5-.54h0s-.03-.02-.05-.02c-.01-.16-.06-.31-.24-.34-.07,0-.13,0-.2.02-.01,0-.03,0-.04,0,0,0-.01-.02-.02-.03-.04-.13-.07-.26-.08-.39.1.08.21.14.33.17l.1.03v-.1c0-.22-.1-.47-.27-.7h0s-.05-.05-.09-.09c.01-.04.03-.08.05-.11.09-.15.19-.3.31-.44.02-.02.04-.04.07-.04-.12-.07-.19-.16-.22-.29-.02-.1-.03-.22,0-.33,0-.02.01-.04.03-.04-.08-.02-.13-.09-.15-.17-.02-.07-.03-.17-.02-.25v-.04s-.3-.46-.3-.46c0,0-.31,0-.49-.27,0,0,0-.01-.01-.02,0-.05-.01-.1-.02-.15.12.1.26.18.41.23l.1.03v-.1c-.01-.22-.11-.47-.28-.69h0c-.14-.17-.32-.31-.52-.4.1-.19.16-.41.18-.66M100.23,8.28c.16.1.31.26.39.39.1.17.17.35.19.51-.15-.08-.28-.21-.37-.35-.06-.09-.11-.19-.14-.3-.01-.05-.03-.1-.04-.15,0-.03-.02-.06-.02-.1M101.09,6.76c.21.13.4.32.53.53.14.23.22.48.22.7-.2-.11-.37-.28-.5-.48-.14-.24-.23-.51-.25-.74M101.88,8.24c.06.16.09.37.08.58-.02.2-.07.38-.15.52-.13-.33-.1-.75.07-1.09M102.06,8.2c.2.14.38.34.51.55.11.2.17.41.19.6v.08c-.4-.21-.65-.71-.7-1.23M102.74,9.72s0,.05,0,.07c0,.04,0,.07,0,.11-.02.14-.05.28-.1.4-.08.18-.19.33-.31.42-.01-.28.08-.57.25-.8.05-.07.11-.14.18-.2M103.51,12.2c0,.26-.05.51-.14.7h-.02c-.16-.32-.21-.7-.14-1.06.03-.13.06-.27.11-.39.11.23.18.5.19.76M103.43,11.1c.15.11.28.25.37.41.09.17.15.36.16.53-.22-.14-.39-.38-.47-.66-.02-.09-.05-.19-.06-.28M103.05,16.21c-.06.11-.12.21-.19.29-.09-.36-.04-.76.12-1.09.06-.13.13-.24.21-.33.02.09.03.19.03.29,0,.09,0,.18,0,.28-.05.12-.1.25-.13.39-.01.06-.03.12-.03.19M103.05,16.71s-.01,0-.02.01c-.03-.03-.06-.06-.09-.1.03-.03.06-.07.09-.11,0,.07,0,.13.02.19M101.95,16.55c.2.15.37.35.49.58.12.24.18.5.17.72-.28-.19-.5-.52-.59-.88-.03-.13-.06-.28-.07-.41M101.97,17.27s-.03.01-.04.02c-.02-.01-.05-.02-.08-.04.01-.03.03-.07.04-.1h0s0-.04.01-.06c.02.06.04.12.07.18M102.53,16.99c-.14-.24-.34-.46-.57-.61,0-.1-.02-.26-.05-.42.35.24.62.47.83.67,0,.01,0,.02,0,.03l.03.1.05-.04s.04.04.06.07c0,0-.01,0-.02,0-.08.04-.16.09-.24.13-.04.02-.08.04-.11.07M103.19,16.25c.05-.11.09-.23.13-.36h0c.01-.07.03-.14.03-.21.04.08.07.17.09.27.04.16.07.33.07.49,0,.27-.07.52-.17.7-.13-.27-.19-.59-.15-.9M103.35,15c.13.13.24.29.31.46.07.18.1.36.09.51-.25-.23-.4-.59-.4-.97M103.23,14.74c-.13-.34-.14-.74-.01-1.1.04-.13.1-.25.16-.36.03.09.05.18.07.28.03.16.04.33.02.5-.03.27-.12.51-.24.68M102.98,13.63c-.13.14-.28.25-.42.3.07-.27.24-.52.47-.68.08-.05.16-.1.23-.13-.02.05-.04.1-.06.14l-.02.04c-.05.11-.12.23-.21.32M102.97,9.86s.07.09.11.13c.07.13.13.26.16.4.04.17.06.35.05.51v.06s0,.03,0,.05c0,.03-.01.07-.02.1h-.01c-.23-.25-.37-.62-.38-.99,0-.07,0-.16,0-.24,0-.04,0-.08.01-.11,0,0,0-.01,0-.02.03.04.05.08.08.11M102.93,9.53c.17.04.35.12.49.23.15.12.27.28.34.43-.2-.04-.39-.14-.55-.29-.08-.14-.17-.26-.27-.38M103.17,11.34c-.02.17-.09.37-.19.55-.1.16-.23.3-.36.37.02-.19.08-.37.17-.52.1-.16.23-.3.38-.4M101.72,14.96c.17.1.3.23.39.37-.17,0-.34-.05-.48-.14-.04-.02-.08-.05-.12-.08-.09-.05-.24-.22-.22-.21-.03-.03-.06-.07-.08-.11.18.01.36.07.52.16M101.32,14.7s0-.01.01-.02c.03-.04.06-.07.1-.08.02,0,.04-.01.06-.01s.04,0,.05.01c.01,0,.02.02.03.03,0,.01.01.03.02.05,0,.02,0,.04,0,.06,0,.01,0,.02,0,.04-.09-.03-.19-.05-.28-.07M100.59,10.32c.12.16.2.33.24.49-.17-.07-.31-.2-.43-.35-.05-.14-.12-.27-.2-.4-.01-.03-.02-.06-.03-.09.16.08.32.2.43.35M100.43,11.59c.17.07.34.21.44.32.13.15.22.32.26.48-.16-.06-.3-.17-.42-.3-.12-.14-.22-.32-.28-.5,0,0,0,0,0,0M101.21,13.56c.12.16.2.34.22.5-.23-.11-.43-.31-.55-.57-.04-.09-.08-.19-.1-.28.16.08.31.21.42.35M101.18,15.02c.06.07.13.14.21.2.1.11.19.23.25.36.12.24.18.5.17.72-.28-.19-.5-.52-.59-.88,0-.03-.02-.07-.02-.11,0-.08-.02-.16-.04-.24,0-.02,0-.04,0-.06,0,0,.02.01.02.02M101.75,17.11c-.06.18-.15.34-.25.45-.02-.17-.01-.35.04-.51.06-.19.16-.36.26-.49.02.18,0,.37-.05.55M105.02,17.37c.66-.28,2.44-.86,4.98-.38.23.06.44.12.65.18-1.34.7-3.27,1.17-5.64.2M111.94,24.85c-.32,2.34-.92,4.38-1.68,6.12h-6.69v-.18l.45-.96-.43-1.3c.23.03.46.1.69.23.05.19.26.98.62,1.1.13.04.29.06.45.06.31,0,.63-.07.77-.16l.09-.06-.08-.06s-.27-.19-.53-.46c-.35-.36-.34-1.03-.32-1.38,0-.03,0-.07,0-.12.05-.51.2-2.04-1.1-2.29-.28-.05-.56-.05-.84,0-.24.04-.48.12-.71.23-.19.09-.36.2-.53.32-.1.07-.2.14-.29.23-.1.11-.12.22-.14.36-.02.13-.03.26-.03.38,0,.07,0,.16.04.22.09.13.18.1.25.07.01,0,.03,0,.04-.01.02.19-.07.92-.17,1.59l-.03.16.14-.08s.45-.26,1.03-.34l-.43,1.3.47.96v.18h-6.48c-.76-1.75-1.37-3.78-1.7-6.12h17.12ZM107.64,33.77c.06.06.12.11.19.15-.05.01-.11.01-.17.02-.03,0-.06,0-.09,0-.41.04-.79.26-1.02.59-.02.03-.09.13-.05.22.02.04.05.07.08.09h.01c.1.09.15.26.06.36-.04.05-.12.06-.17.05-.02,0-.08-.03-.09-.08,0-.03,0-.05,0-.08,0-.08,0-.16-.06-.21-.04-.04-.1-.05-.16-.05-.13-.01-.2-.13-.29-.27-.06-.1-.13-.2-.22-.28-.25-.2-.58-.11-.87-.03l-.08.02c-.53.14-1.08.12-1.62.1-.32-.01-.65-.02-.95-.12-.08-.02-.17-.06-.25-.09-.1-.04-.21-.08-.32-.11-.15-.04-.31-.06-.46-.07-.12-.01-.25-.03-.37-.05-.49-.1-.93-.4-1.33-.67-.14-.09-.27-.19-.38-.31-.07-.09-.13-.18-.18-.29-.06-.11-.13-.23-.23-.34-.29-.23-.44-.55-.59-.89-.01-.03-.03-.06-.04-.09h12.11c-.4.87-.84,1.67-1.3,2.39-.43-.45-.84-.29-1.13-.1l-.08.05.07.07ZM102.69,29.82l.43-1.31c.1,0,.2,0,.31,0l.43,1.31-.43.92v.23h-.29v-.21l-.46-.93ZM104.64,26.83c-.15-.35-.45-.65-.82-.71-.31-.05-.62.07-.89.22-.23.13-.44.28-.64.45-.09.08-.18.16-.27.23-.04.03-.1.08-.15.08-.05,0-.07-.07-.07-.11,0-.16,0-.32.03-.47,0-.05.02-.09.04-.14.03-.06.07-.1.12-.14.51-.44,1.15-.73,1.82-.73.27,0,.54.05.77.2.32.21.49.58.55.96.06.38.02.76,0,1.14-.02.38,0,.77.14,1.12.13.32.37.59.66.76-.26.09-.53.12-.8.09-.09-.01-.18-.03-.26-.08-.08-.06-.14-.14-.19-.23-.11-.21-.2-.43-.25-.65-.01-.05-.02-.09-.05-.13-.02-.02-.05-.04-.08-.06-.35-.19-.76-.27-1.17-.25-.4.02-.8.13-1.16.3.09-.48.14-.96.15-1.45,0-.03,0-.05,0-.08,0,0,0-.01,0-.02.01-.03.04-.05.06-.07.28-.26.59-.49.93-.66.25-.12.55-.2.81-.11.15.06.27.17.37.29.29.38.35.88.4,1.36.05,0,.09,0,.14,0-.03-.38-.07-.76-.22-1.11M113.74,13.78c.2-.18.41-.36.71-.4.25-.03.53.02.86.16.63.26.87.18,1.07.12h.04c.14-.06.36-.2.51-.31l-.21.63.85.07c-.14.13-.43.34-.9.5-.65.18-1.15-.06-1.59-.27-.13-.06-.25-.12-.37-.16-.45-.17-.96-.14-1.36.07.1-.15.25-.28.39-.4M113.24,14.43c.25-.18.57-.27.88-.27.09.45.45.77.64.91-.14.14-.5.38-1.27.41-.09-.12-.39-.58-.26-1.05M108.52,14.81h0c.74,0,1.5.12,2.27.36,2.52.77,3.64.36,4.01.06-.09.51-.36,1.69-1.01,2.11-.6.39-1.54.13-2.83-.23-.29-.08-.6-.17-.93-.25-2.76-.53-4.65.19-5.2.44-.11-.05-.23-.1-.35-.16-.02-.01-.05-.03-.07-.04-.09-.06-.19-.11-.29-.17-.08-.04-.16-.09-.24-.13,0,0-.01,0-.02,0,.58-.62,2.15-1.97,4.64-1.97M105.62,15.07s.03.05.04.07c.02.03.04.07.04.11,0,.09-.1.11-.17.09-.11-.05-.23-.14-.32-.22-.11-.1-.39-.48-.15-.6.13-.06.26.08.32.17.09.12.16.25.23.38M105.64,7.42c.25-.4.11-.96-.02-1.35l-.02-.07c-.3-1.02-.48-1.84.3-2.25.42-.21.98-.3,1.71-.26,1.76.09,3.56.73,5.34,1.92,2.08,1.39,3.98,2.85,5.82,4.45.27.24.56.48.84.71.72.6,1.46,1.22,2.09,1.92.18.2.35.38.42.61-.16-.07-.32-.17-.48-.29-.12-.08-.24-.17-.37-.23-.24-.14-.36-.22-.57-.42-.09-.07-.21-.07-.3,0-.09.08-.1.2-.03.3.04.06.07.1.08.13-.05-.02-.1-.05-.14-.09h-.01c-.14-.1-.28-.22-.42-.33-.11-.09-.23-.19-.34-.27l-.7-.5.42.75c.03.05.06.11.08.17,0,0,0,0,0,0-.23-.17-.48-.29-.73-.4l-.1-.04c-.08-.04-.18-.03-.26.02-.06.04-.1.11-.1.19-.18-.1-.35-.23-.52-.37-.05-.04-.09-.07-.14-.11l-.17-.13-.11.19s-.02.04-.03.06c0,0,0,0,0,0-.18-.06-.31-.17-.46-.29-.07-.06-.14-.12-.23-.19-.07-.05-.17-.06-.26-.02-.08.04-.14.12-.14.22v.02s0,.14-.01.19c0,0-.01,0-.02,0-.28-.11-.53-.29-.79-.48-.14-.1-.29-.21-.44-.3l-.17-.1-.1.17s-.03.05-.04.07c-.33-.13-.63-.34-.92-.55l-.07-.05s-.17-.13-.31-.04c-.04.03-.1.09-.1.2-.09-.04-.26-.13-.56-.35-.05-.04-.09-.06-.1-.07-.13-.09-.24-.07-.32-.04,0,0-.01,0-.02,0-.02,0-.06-.02-.08-.03-.17-.08-.33-.17-.48-.28-.01,0-.03-.02-.05-.04-.1-.09-.24-.21-.4-.18-.08.01-.14.06-.19.13-.09-.04-.17-.03-.24.01-.12.08-.11.21-.11.26,0,.14-.03.28-.1.44-.02.05-.04.07-.04.07,0,0-.03,0-.08-.05,0,0,0,0-.01-.01-.04-.03-.12-.11-.23-.09-.05,0-.12.04-.18.12-.04.05-.06.06-.06.07,0,0-.03-.01-.07-.06l-.02-.03c-.07-.1-.16-.22-.32-.28,0,0-.02-.03-.03-.04l-.02-.04c-.05-.07-.13-.11-.22-.11-.09,0-.16.06-.2.14v.02s-.11-.09-.2-.1c-.07,0-.13.02-.17.04-.13-.07-.26-.09-.4-.04-.07-.02-.13,0-.17.02-.11.05-.14.16-.15.2-.01.04-.04.13-.06.15-.16.08-.21.21-.25.29v.02s-.05.08-.06.1c-.06-.04-.13-.06-.2-.04-.08.02-.14.07-.17.14-.05.13-.17.22-.31.31h0s-.01-.06-.02-.09c0-.06-.02-.12-.04-.18l-.18-.5-.2.55s-.02.06-.03.09c-.05.15-.23.28-.34.27-.02,0-.07,0-.1-.13,0,0,0-.02,0-.03,0-.05-.02-.15-.09-.23l-.16.13c-.05-.24-.21-.48-.24-.54-.05-.1-.02-.29.1-.52s-.19-.78-.19-.78c.43-.52.19-1.17-.02-1.56.15-.07.26-.17.34-.3M104.83,7.58s.08.07.19.09c0,0,.01.01.02.02.17.21.26.42.33.67.04.14.05.29.02.43-.03.11-.09.21-.16.29-.05.05-.1.11-.15.15,0,0-.02.02-.04.03-.12.06-.34.15-.69.19,0,0-.25.18.76-.03.06.06.11.13.15.2.06.09.09.15.06.26,0,.09-.06.19-.09.27-.03.09-.06.18-.05.28.02.24.24.37.3.59.03.12,0,.25-.07.34-.03.04-.11.08-.13.11-.01.04.03.1.03.14,0,.07,0,.17-.02.25-.02.08-.08.15-.15.17.02,0,.02.03.03.04.02.1.02.22,0,.33-.03.14-.1.22-.22.29.03,0,.05.02.07.04.11.14.21.29.31.44.1.17.12.4.13.59,0,.2-.02.41-.09.6,0,.01,0,.02-.02.03-.01,0-.03,0-.04,0-.07-.01-.13-.02-.2-.02-.22.03-.24.25-.24.43l-.31-.34s-.18.61-.76.69c0,0,.5.09.89-.44.02.04.05.09.07.13.07.11.17.22.27.32.1.09.21.2.33.27.01,0,.02,0,.03.01-.81.44-1.36.96-1.65,1.27-.03-.02-.06-.04-.09-.06,0-.07.02-.14.02-.22h0c0-.14-.01-.27-.04-.4.04.04.09.08.14.12l.09.06.03-.1c.05-.2.02-.46-.08-.72h0c-.1-.23-.25-.44-.44-.59.13-.19.22-.45.25-.74h0c0-.11.01-.22,0-.33.15.2.35.35.56.42l.1.03v-.1c0-.22-.09-.48-.26-.71h0c-.13-.18-.32-.33-.51-.43.1-.21.16-.48.15-.76h0c0-.08-.01-.17-.02-.25.1.12.23.22.36.28l.09.05v-.1c.04-.22-.02-.48-.16-.73h0c-.12-.21-.29-.39-.49-.51.01-.18,0-.38-.05-.58h0c-.02-.06-.04-.12-.06-.17.16.1.34.16.53.17h.1s-.03-.09-.03-.09c-.05-.21-.21-.44-.42-.61h0c-.17-.14-.39-.23-.6-.27-.02-.22-.09-.46-.21-.69h0c-.16-.28-.4-.52-.67-.68l-.04-.02c0-.24-.09-.52-.25-.77h0c-.08-.13-.17-.24-.28-.35.04.01.07.02.09.03.09.02.29.23.36.31.03.03.08.05.14.06v.3s.19-.29.37-.31c0,0,.44.18.49.63.03.22.03.51.08.72,0,.04.02.08.05.11.03.03.08.04.12.05.27.05.57.02.8-.12.11-.07.24-.17.25-.31,0-.18-.04-.36-.1-.52-.04-.11-.09-.21-.15-.31-.03-.05-.06-.1-.1-.14-.04-.05-.09-.09-.14-.14-.01-.01-.02-.02-.02-.03.21-.02.79-.02,1.13.39M103.48,13.11c.16.09.31.22.42.36.12.16.19.34.22.5-.23-.12-.43-.33-.54-.59-.03-.08-.07-.18-.09-.28M103.03,6.45v.05c0,.05,0,.11-.02.15-.03.14.04.24.13.32.02.02.04.03.07.05,0,0,.02.01.03.02.23.16.42.37.56.61.1.17.21.37.25.56.03.17-.11.31-.24.38-.19.1-.41.13-.61.07-.02,0-.04-.01-.06-.03-.03-.03-.03-.07-.03-.11,0-.09,0-.17,0-.26v-.12s-.01-.04-.02-.06h0c-.02-.41-.2-.73-.56-.99-.07-.05-.16-.1-.28-.06-.03,0-.06.01-.08.01-.01,0-.03,0-.04,0-.06,0-.1,0-.14-.05-.25-.23-.53-.38-.83-.45,0,0,0,0-.01,0,.03-.15.03-.28-.02-.43.04-.03.09-.04.13-.07.05-.03.09-.07.13-.11.07-.06.15-.13.24-.13.04,0,.08,0,.13.02.03,0,.07.01.1.02.08.01.17.01.25-.02.05-.02.1-.05.15-.04.04,0,.07.04.11.07.04.02.08.03.12.04.07.02.13,0,.18-.02.01,0,.03-.01.05-.02.23.13.34.32.33.59M101.92,5.44c.17.07.34,0,.34,0h.03c.11-.06.2-.08.27-.09.08,0,.15.02.2.06.04.03.06.07.07.1,0,.02.02.07,0,.12-.01.02-.03.04-.04.05-.07.07-.18.08-.27.03-.07-.04-.12-.11-.19-.12-.08-.02-.12.04-.19.07-.11.05-.23,0-.35-.02-.23-.03-.38.11-.53.27-.05.06-.13.13-.22.11-.04,0-.06-.04-.09-.06-.04-.03-.08-.05-.13-.05-.09,0-.18,0-.27-.03-.14-.06-.12-.21-.04-.31.1-.13.36-.04.48.04.02.02.05.03.08.03.03,0,.06-.01.08-.03l.05-.05c.34-.51.56-.2.73-.13M99.37,10.68s-.09.06-.14.12c-.01-.02-.03-.04-.04-.08v-.02c-.05-.09-.1-.21-.26-.29-.02-.02-.05-.11-.06-.15-.01-.04-.04-.15-.15-.2-.04-.02-.09-.03-.17-.02-.14-.04-.28-.03-.4.04-.04-.03-.1-.05-.17-.04-.09,0-.15.06-.19.1v-.02c-.04-.08-.12-.13-.21-.14-.09,0-.17.03-.22.11l-.02.04s-.02.03-.03.04c-.16.07-.25.19-.32.28l-.02.03s-.06.06-.06.06c0,0-.03-.02-.07-.07-.02-.03-.08-.11-.19-.12-.05,0-.12,0-.2.08-.06.06-.1.07-.1.07-.06-.02-.16-.28-.16-.51,0-.05,0-.19-.11-.26-.07-.04-.15-.05-.24-.01-.04-.07-.11-.12-.19-.13-.16-.03-.3.09-.4.18-.02.02-.03.03-.04.04l-.1.06c-.16.1-.31.2-.48.25,0,0,0,0-.01,0-.08-.03-.19-.05-.31.04-.03.02-.07.05-.12.08-.19.13-.33.23-.44.29-.05.03-.11,0-.13-.05-.01-.04-.04-.08-.09-.11-.13-.07-.26.02-.3.06l-.06.04c-.29.21-.6.42-.93.55,0-.02-.02-.05-.04-.07l-.1-.17-.17.1c-.15.09-.3.2-.44.3-.26.19-.51.37-.8.48,0,0,0,0,0,0,0-.06-.01-.15-.01-.19h0c0-.11-.05-.19-.14-.23-.08-.04-.18-.03-.26.02-.08.06-.16.12-.23.19-.15.13-.27.24-.46.29,0-.01,0-.02-.01-.03-.02-.04-.03-.09-.05-.13-.02-.06-.09-.07-.14-.04-.04.03-.07.06-.1.08-.08.06-.16.12-.24.18-.14.11-.28.22-.43.3,0-.07-.04-.14-.1-.19-.08-.05-.18-.06-.26-.02l-.1.04c-.24.11-.5.23-.73.39h0c.02-.05.04-.1.07-.16,0,0,0-.01,0-.02.02-.09.07-.18.08-.28.02-.14-.12-.13-.21-.07l-.17.11s0,0,0,0c-.03.03-.08.07-.17.14-.34.29-.58.47-.72.55.01-.03.04-.07.09-.14.06-.1.05-.22-.04-.3-.09-.08-.21-.08-.31,0-.25.24-.51.39-.78.56-.14.08-.28.17-.42.26-.07.04-.14.09-.21.12.07-.22.25-.41.43-.62.62-.69,1.36-1.31,2.08-1.91.28-.23.56-.47.83-.71,1.84-1.6,3.74-3.06,5.82-4.45,1.78-1.19,3.57-1.84,5.34-1.92.56-.03,1.58,0,2.04.54.22.26.3.71.21,1.17-.21-.03-.4.28-.4.28-.11-.06-.24-.1-.36-.08-.21.03-.31.24-.26.44v.02s.02.06.03.08c0,.01-.01.02-.03.03,0,0-.02.01-.03.02-.02.01-.03.02-.05.03-.03.02-.05.05-.08.07-.05.04-.1.08-.15.13-.22.23-.29.51-.19.82,0,.02,0,.03.01.05.1.28.07-.18.33-.31.22-.11.42-.12.56-.11-.09.07-.17.15-.25.25-.26.31-.41.72-.41,1.12-.02,0-.03,0-.05.01h0s0,0,0,0c-.34.08-.65.38-.72.74l-.02.09h.1c.15-.01.29-.09.39-.16-.11.38-.09.78.05,1.13-.25.22-.41.52-.47.83M99.82,10.5s-.02.09-.04.13c-.06.17-.15.31-.24.41-.01,0-.02.01-.04.02-.03-.35.1-.72.35-1-.02.13-.03.27-.03.4,0,.01,0,.03,0,.05M99.8,8.53c-.09.09-.19.15-.29.18.09-.23.28-.42.5-.5,0,0,0,0,0,0-.03.05-.06.11-.09.17-.04.05-.08.1-.12.15M99.95,8.74c.03-.09.07-.2.11-.29.01-.02.03-.05.04-.07,0,.01,0,.03.01.04.01.06.03.12.05.17.04.18.06.37.05.55-.02.23-.08.45-.17.62l-.05.06v-.02c-.14-.33-.16-.71-.05-1.06M99.96,10.51c.03-.15.05-.3.04-.44h0s.03.04.04.06c.02.06.05.12.07.17.04.08.08.15.13.22.03.07.05.14.07.22.05.23.05.46,0,.66l-.09-.02c-.17-.25-.27-.56-.28-.87M100.11,11.65c-.03.12-.04.25-.04.38-.02.07-.03.13-.05.18-.08.18-.18.34-.3.44-.03-.36.12-.75.39-1.02,0,0,0,0,0,.01M100.41,13.91c-.06.19-.15.35-.25.47-.06-.36.05-.76.29-1.05.03.2,0,.42-.04.58M100.57,13.13s0,0,0-.01l-.04-.05v-.02c-.2-.26-.31-.6-.31-.94,0-.02,0-.04,0-.06.02-.11.04-.23.04-.34.15.2.26.44.32.69.05.26.05.53-.01.74M100.75,14.44c-.12-.29-.16-.64-.11-1,.16.19.29.43.35.68.05.18.06.35.05.53v.03s-.02.1-.02.1c0,0,0,0,0,0,0,.02,0,.05-.01.07-.1-.1-.19-.24-.27-.42M100.89,15.35c.04-.08.08-.17.13-.25,0,.07.02.14.03.21,0,.12,0,.25-.02.36-.04.2-.11.37-.21.5-.07-.26-.05-.56.07-.83M92.06,14.12c-.12.04-.24.1-.37.16-.44.21-.94.45-1.59.27-.48-.16-.76-.37-.9-.5l.85-.07-.21-.63c.16.11.37.25.51.3h.04c.2.08.44.15,1.07-.1.34-.14.62-.19.86-.16.29.04.5.22.71.4.14.12.29.25.39.4-.41-.21-.91-.24-1.36-.07M92.64,14.16c.32,0,.63.09.88.27.13.47-.17.93-.26,1.05-.76-.04-1.12-.28-1.27-.41.19-.14.55-.46.64-.91M92.97,17.34c-.65-.42-.92-1.6-1.01-2.11.37.3,1.49.71,4.01-.06.77-.24,1.54-.36,2.27-.36h0c.98,0,1.81.21,2.5.5-.14.34-.15.72-.02,1.04l.04.1.08-.07c.15-.14.27-.38.33-.65.12.28.32.52.55.69-.14.14-.26.35-.34.59,0,.02-.01.05-.02.07-.87-.29-2.49-.64-4.64-.22-.3.08-.59.16-.86.24h0s0,0,0,0c-.02,0-.05.01-.07.02-1.29.36-2.23.63-2.83.23M93.98,19.68c-.05,1.26-.02,2.49.08,3.68l-.99-.65c-.18-1.19-.3-2.46-.36-3.86l1.27.83ZM94.11,23.86c.33,3.25,1.19,6.22,2.56,8.81.57,1.07,1.23,2.07,1.95,2.97-.13.16-.34.41-.62.68-.41-.41-.8-.84-1.18-1.29-.71-.85-1.35-1.78-1.88-2.75-.54-.98-.99-2.01-1.33-3.07-.67-2.06-.96-4.21-1.06-6.37l1.56,1.02ZM88.34,15.99l2.67,1.75c.03,1.39.1,2.63.23,3.77l-3.04-1.99c0-1.13.05-2.31.14-3.53M90.75,37.05s-1.31-1.29-2.38-4.12c-.97-2.58-1.94-7.02-1.1-13.55l3.2,2.09c0,.39.02.77.03,1.16.08,2.23.37,4.46,1.07,6.58.34,1.06.79,2.08,1.33,3.07.53.97,1.17,1.89,1.88,2.75.65.78,1.36,1.51,2.11,2.18-1.38.91-3.41,1.57-5.82.19-.16-.16-.26-.28-.32-.34M91.5,37.79c.84.4,1.62.55,2.35.55,2.51,0,4.3-1.89,4.86-2.58.7.86,1.46,1.63,2.25,2.28-4.53,3.06-7.98,1.01-9.46-.25M99.34,42.41c.32-.49,1.52-2.42,2.01-4.07.31.23.62.45.93.64l-.5,3.86c-.26-.13-1.02-.45-2.44-.42M100.93,42.71c.48.11.75.24.84.29,0,.01,0,.03-.03.05-.04.05-.17.15-.55.18-.19.02-.33.08-.43.15l.17-.68ZM102.17,44.75s-.07.07-.1.11l-.02-.65c.07.02.12.05.15.07.1.08.11.16.11.17h0s0,.17-.15.3M102.33,44.21c-.17-.16-.42-.18-.65-.17-.23.02-.46.07-.69.05-.09,0-.18-.03-.24-.09-.1-.1-.09-.29,0-.4.09-.11.24-.17.38-.2.14-.03.29-.04.43-.08.14-.04.28-.13.33-.26.02-.06.03-.12.04-.18l.21-1.62c.03-.27.07-.54.1-.81l.1-.81.05-.41s0-.07.01-.1c0-.01,0-.03,0-.05,0-.02.02,0,.03,0,.06.03.12.07.18.1.03.02.06.03.09.05-.13,1.66-.26,3.32-.39,4.97M104.69,44.87s-.06-.08-.1-.11c-.11-.1-.14-.19-.15-.25v-.04s.02-.09.12-.17c.04-.03.09-.05.15-.07l-.02.65ZM106.04,43.95s-.02.03-.03.04c-.08.08-.2.11-.32.11-.22,0-.43-.04-.65-.05-.22-.01-.45.02-.62.15-.12-1.58-.25-3.16-.37-4.75,0-.07,0-.14.02-.2.05-.11.17-.15.28-.18.14,1.2.29,2.39.43,3.59.02.2.06.42.21.56.19.17.46.14.68.2.21.06.51.28.35.53M105.99,43.39c-.1-.08-.24-.14-.43-.15-.38-.04-.5-.13-.55-.18-.02-.02-.02-.04-.03-.05.09-.05.36-.18.84-.29l.17.68ZM107.42,42.41c-1.42-.02-2.19.29-2.44.42l-.5-3.86c.3-.19.61-.4.93-.64.49,1.66,1.69,3.59,2.01,4.08M103.38,38.91c-.81-.4-1.75-1.03-2.71-1.93.03-.09.03-.2.03-.3,0-.15,0-.28.1-.35.02-.01.03-.02.05-.03.03-.01.07-.03.11-.06.04-.03.06-.07.07-.11.01-.02.02-.05.04-.06.05-.05.12-.05.21-.06.11-.01.23-.02.31-.11.09-.08.11-.21.07-.3,0-.02-.02-.04-.03-.06,0-.01-.02-.02-.02-.03-.02-.05,0-.11.03-.15.08-.11.26-.17.38-.16.05,0,.1,0,.16.02.14.02.3.04.43-.05.05-.04.08-.08.12-.13.04-.05.07-.1.12-.11.03,0,.07,0,.11,0,.08,0,.18,0,.24-.08h0c.02-.06.03-.07.09-.06l.86.05c.05,0,.11,0,.14.03.02.02.05.04.07.07.03.03.06.07.1.1.09.07.23.07.37,0,.04-.02.07-.03.11-.05.06-.03.11-.06.17-.07.1-.03.27.03.35.13.04.06.04.11.01.16,0,0-.02.02-.03.02-.03.02-.08.05-.1.11-.03.1.05.19.15.22h.03s.08.04.08.05c.04.09-.01.18-.1.31-.06.09-.11.17-.13.27h0s0,.02,0,.02c.01.11.13.15.18.16.07.02.23.09.25.22,0,.02,0,.04,0,.06,0,.04,0,.09.02.14.01.03.03.06.05.08.01.01.02.03.03.04,0,.08.03.14.07.19-.92.84-1.83,1.44-2.6,1.82M105.8,38.03c.74-.61,1.51-1.36,2.25-2.28.56.68,2.35,2.59,4.87,2.59.72,0,1.51-.16,2.34-.55-1.5,1.27-4.96,3.29-9.46.24M118.39,32.93c-1.07,2.84-2.34,4.09-2.35,4.1-.06.07-.17.19-.34.36-2.4,1.38-4.42.73-5.8-.17.75-.67,1.46-1.39,2.1-2.17.71-.85,1.35-1.78,1.88-2.75.54-.98.99-2.01,1.33-3.07.69-2.12.98-4.35,1.07-6.58.01-.4.02-.8.03-1.19l3.18-2.08c.84,6.53-.13,10.97-1.1,13.55M120.94,19.02l-.94-.2.19-.94,1.87-.41-1.12,1.56Z"/>
  <path class="cls-2" d="M109.01,15.9c.1,0,.21.01.31.02.06,0,.09.02.12.03.04.03.06.07.06.13,0,.05,0,.1,0,.16,0,.04,0,.06,0,.07v.03c.06,0,.11.01.17.02v-.02s-.03-.03-.03-.06c0-.02,0-.04,0-.08,0-.04,0-.08.01-.13,0-.05,0-.09-.02-.12-.02-.03-.04-.05-.08-.07.05-.02.09-.04.11-.07.03-.03.05-.08.06-.13.01-.11-.02-.19-.12-.24-.05-.03-.11-.04-.19-.05-.16-.01-.32-.03-.49-.04-.02.31-.04.62-.06.93.04,0,.09,0,.13,0,0-.13.02-.27.03-.4M109.05,15.48c.12,0,.23.02.34.03.05,0,.09.01.11.03.05.03.07.08.06.14,0,.06-.03.1-.07.12-.04.02-.09.03-.16.02-.11,0-.21-.02-.32-.03,0-.11.02-.21.03-.32"/>
  <path class="cls-2" d="M110.59,16.3c.06-.07.09-.15.12-.25.03-.12.02-.23-.03-.33-.06-.1-.16-.17-.3-.19-.14-.02-.28-.05-.42-.06-.05.31-.1.62-.14.92.13.02.26.04.39.06.17.03.29-.02.39-.14M109.97,16.3c.04-.24.07-.47.11-.71.08.01.17.03.25.04.11.02.19.06.22.14.04.07.04.17.02.28,0,.03-.02.06-.03.1-.02.05-.05.1-.08.13-.04.04-.09.06-.14.07-.03,0-.07,0-.11,0-.08-.01-.15-.02-.23-.04"/>
  <path class="cls-2" d="M111.51,16.63c-.19-.05-.38-.1-.57-.15.02-.1.05-.2.08-.31.18.04.36.09.53.14,0-.03.02-.07.03-.1-.18-.05-.36-.1-.54-.14.02-.09.05-.18.07-.28.2.05.4.1.6.15.01-.04.02-.07.03-.11-.24-.07-.49-.13-.74-.19-.07.3-.15.61-.21.91.23.05.46.11.69.17.01-.04.02-.07.03-.11"/>
  <path class="cls-2" d="M111.76,16.82c.08-.24.16-.48.24-.72.09.29.16.58.23.87.05.02.09.03.14.05.11-.29.22-.58.34-.87-.04-.02-.08-.03-.13-.05-.09.24-.18.47-.27.71-.07-.29-.14-.58-.23-.88-.05-.02-.11-.03-.16-.05-.1.3-.19.59-.28.89.04.01.08.02.12.04"/>
  <path class="cls-2" d="M106.79,16.35s.09,0,.13-.01c-.01-.12-.02-.25-.04-.37.11-.2.23-.39.35-.59-.06,0-.11,0-.17.01-.09.16-.18.32-.26.48-.11-.14-.23-.27-.35-.41-.06,0-.11.01-.17.02.16.17.31.33.46.5.01.12.03.25.04.37"/>
  <path class="cls-2" d="M108.2,16.3c.16,0,.29-.05.38-.16.08-.09.12-.2.13-.34,0-.13-.02-.24-.09-.32-.08-.11-.22-.17-.41-.17-.18,0-.32.06-.41.18-.07.09-.1.2-.1.33,0,.14.05.26.13.34.09.09.21.14.36.14M107.95,15.53c.07-.07.16-.1.27-.1.11,0,.2.03.26.1.06.07.09.16.09.27,0,.1-.04.2-.09.27s-.14.12-.26.12c-.12,0-.21-.03-.27-.1-.06-.07-.09-.16-.09-.26,0-.13.03-.23.1-.29"/>
  <path class="cls-2" d="M93.66,17.04c-.1-.27-.2-.53-.3-.8-.05.02-.09.03-.14.05.12.3.24.6.35.9.2-.07.4-.14.6-.2-.01-.04-.02-.07-.03-.11-.16.05-.32.1-.48.16"/>
  <path class="cls-2" d="M94.06,16.05c.1.31.2.61.29.92.04-.01.09-.02.13-.04-.09-.31-.19-.62-.28-.92-.05.01-.09.03-.14.04"/>
  <path class="cls-2" d="M95.28,16.24s-.08-.03-.13-.04c.03-.02.05-.05.07-.07.03-.05.04-.1.02-.16-.01-.05-.04-.09-.08-.13-.07-.06-.17-.07-.29-.04-.15.03-.3.07-.45.11.09.31.18.62.27.93.13-.04.27-.07.41-.1.13-.03.22-.08.26-.17.03-.06.04-.12.02-.18-.02-.07-.05-.12-.11-.15M94.68,16.28c-.03-.09-.05-.19-.08-.29.08-.02.17-.04.25-.06.06-.01.11-.02.14-.02.06,0,.1.05.12.11.01.06,0,.11-.05.14-.03.02-.07.04-.13.05-.08.02-.17.04-.25.06M95.24,16.53c-.02.05-.08.09-.16.11-.1.02-.19.05-.29.07-.03-.11-.06-.22-.09-.33.09-.02.18-.04.27-.07.06-.01.11-.02.14-.01.07.01.12.05.13.12,0,.04,0,.08,0,.11"/>
  <path class="cls-2" d="M96.33,16.35c-.21.03-.41.06-.61.09-.02-.11-.04-.21-.06-.32.19-.03.38-.06.57-.09,0-.04-.01-.07-.02-.11-.19.03-.38.06-.57.09-.02-.1-.04-.19-.06-.29.21-.04.42-.07.63-.1,0-.04-.01-.08-.02-.12-.26.03-.52.08-.78.12.07.31.14.63.2.94.24-.05.49-.08.74-.12,0-.04-.01-.08-.02-.11"/>
  <path class="cls-2" d="M96.74,16.4c-.02-.14-.03-.27-.05-.41.11-.01.21-.02.32-.03.06,0,.1,0,.13,0,.05.02.08.06.09.12,0,.05.02.11.02.16,0,.04,0,.06.01.07v.03c.07,0,.13,0,.18,0v-.02s-.04-.03-.05-.06c0-.02-.01-.04-.01-.08,0-.04-.01-.09-.02-.13,0-.06-.02-.1-.04-.12-.02-.02-.06-.04-.1-.05.04-.02.08-.06.1-.09.02-.04.03-.09.03-.15,0-.11-.07-.18-.17-.22-.06-.02-.13-.02-.21-.02-.17.01-.34.03-.5.05.05.32.09.64.14.95.04,0,.09,0,.14-.01M96.99,15.52c.05,0,.09,0,.12.01.06.02.09.07.1.13,0,.06,0,.11-.05.14-.04.03-.09.04-.16.05-.11,0-.22.02-.33.03-.01-.11-.03-.22-.04-.33.12-.01.24-.02.36-.03"/>
  <path class="cls-2" d="M97.76,15.47c.02.28.03.57.04.85.05,0,.09,0,.14,0,0-.28-.02-.57-.03-.85.12,0,.25,0,.37,0,0-.04,0-.08,0-.12-.3,0-.6,0-.9.01,0,.04,0,.08,0,.11.12,0,.25,0,.37-.01"/>
  <path class="cls-2" d="M98.35,16.32c.04-.1.08-.19.12-.29.14,0,.28.01.42.02.03.1.06.2.09.3.05,0,.1,0,.16.01-.11-.33-.23-.66-.36-.99-.06,0-.11,0-.17,0-.14.32-.27.63-.4.95.05,0,.1,0,.14,0M98.69,15.5c.06.15.11.29.16.44-.11,0-.22-.01-.33-.02.06-.14.12-.28.18-.42"/>
  <path class="cls-2" d="M100.1,16.25c.05-.08.09-.17.1-.27.02-.13,0-.25-.07-.34-.08-.11-.19-.17-.34-.19-.15-.02-.3-.03-.45-.05-.02.32-.03.64-.06.96.14.01.28.03.42.05.18.02.31-.03.41-.17M99.42,16.27c.02-.25.04-.49.05-.74.09,0,.18.02.27.03.12.01.21.06.25.13.05.07.07.17.05.29,0,.03-.01.06-.02.1-.02.06-.05.11-.08.14-.04.04-.09.07-.15.08-.03,0-.07,0-.12,0-.09,0-.17-.02-.26-.03"/>
  <path class="cls-2" d="M104.45,33.12h-.02v-.09h-.14v-.24h.26v-.62h-.21s-.06,0-.06,0v-.18s-.02-.09-.06-.12c-.04-.02-.09-.03-.13,0s-.06.07-.06.12v.19h-.45v-.19s-.02-.09-.06-.12c-.04-.02-.09-.02-.13,0-.04.02-.06.07-.06.11v.19h-.44v-.19s-.02-.09-.06-.12c-.04-.02-.09-.02-.13,0-.04.02-.06.07-.06.11v.19h-.26v.62h.26v.24h-.18v.09h-.02l-.18-.22h-.67l.3.44.37.24h1.17s0,0,0,0h1.17s.37-.25.37-.25l.3-.44h-.67l-.18.22ZM103.96,32.31h.45v.33h-.45v-.33ZM104.04,32.79v.24h-.17v.1h-.16s0-.1,0-.1h-.11v-.24h.45ZM103.24,32.31h.05c.1,0,.15-.03.18-.05.02.02.07.05.18.05h.05v.33h-.45v-.33ZM103.33,32.79v.24h-.15v.1h-.16v-.1h-.13v-.24h.44ZM102.52,32.64v-.33h.44v.33h-.44ZM105.01,33.04l-.14.2-.3.19h-1.13s-1.13,0-1.13,0l-.3-.19-.14-.2h.32l.17.22h.24s0-.09,0-.09h.27v.1h.46s0-.1,0-.1h.22v.1h.46v-.1h.27v.09h.24s.18-.23.18-.23h.32Z"/>
  <path class="cls-2" d="M104.45,37.28h-.02v-.09h-.14v-.24h.26v-.62h-.21s-.06,0-.06,0v-.18s-.02-.09-.06-.12c-.04-.02-.09-.03-.13,0s-.06.07-.06.12v.19h-.45v-.19s-.02-.09-.06-.12c-.04-.02-.09-.02-.13,0-.04.02-.06.07-.06.11v.19h-.44v-.19s-.02-.09-.06-.12c-.04-.02-.09-.02-.13,0-.04.02-.06.07-.06.11v.19h-.26v.62h.26v.24h-.18v.09h-.02l-.18-.22h-.67l.3.44.37.24h1.17s0,0,0,0h1.17s.37-.25.37-.25l.3-.44h-.67l-.18.22ZM103.96,36.48h.45v.33h-.45v-.33ZM104.04,36.96v.24h-.17v.1h-.16s0-.1,0-.1h-.11v-.24h.45ZM103.24,36.48h.05c.1,0,.15-.03.18-.05.02.02.07.05.18.05h.05v.33h-.45v-.33ZM103.33,36.96v.24h-.15v.1h-.16v-.1h-.13v-.24h.44ZM102.52,36.81v-.33h.44v.33h-.44ZM105.01,37.21l-.14.2-.3.19h-1.13s-1.13,0-1.13,0l-.3-.19-.14-.2h.32l.17.22h.24s0-.09,0-.09h.27v.1h.46s0-.1,0-.1h.22v.1h.46v-.1h.27v.09h.24s.18-.23.18-.23h.32Z"/>
  <path class="cls-2" d="M101.02,14.79h0s0,0,0,0"/>
  <path class="cls-2" d="M104.97,23.57c.1.11.28.16.47.08.03.08.1.15.18.18.04.01.08.02.13.02.1,0,.2-.04.3-.12.12.17.42.22.73.22.18,0,.36-.01.52-.03.09,0,.16-.01.22-.01.39-.02.67-.1.88-.37.2.07.72.2,1.29-.58.16-.05.98-.35.84-1.24.12-.11.51-.52.28-1.05.03-.11.12-.51-.07-.69-.04-.08-.22-.45-.53-.52-.19-.04-.4.05-.6.25-.03.03-.12.12-.15.21-.18.11-.26.29-.28.36-.15.07-.23.22-.27.31-.26-.05-.56.01-.88.19-.22-.16-.47-.26-.75-.26h0c-.35,0-.7.16-.98.46-.36.4-.54.98-.49,1.53-.08,0-.15.02-.22.06-.12.08-.19.22-.2.38h0s0,0,0,0c-.15,0-.29.03-.39.13-.17.2-.13.38-.04.48M109.01,20.78c.38.14.53.56.53.57l.14-.05s-.17-.49-.61-.66c0,0,0,0,0,0,.04-.08.12-.21.27-.24.15-.03.4.05.81.57l.12-.09c-.34-.43-.63-.63-.89-.62.04-.07.11-.17.23-.21.18-.07.43,0,.73.2l.08-.12c-.27-.19-.51-.27-.72-.25.01-.01.02-.03.04-.04.16-.17.32-.24.46-.21.27.05.43.44.43.44v.02s.02.01.02.01c.14.12.07.46.03.58v.03s0,.03,0,.03c.24.52-.24.91-.27.93l-.04.03v.04c.18.87-.7,1.11-.74,1.12h-.03s-.02.03-.02.03c-.44.62-.89.62-1.11.57.36-.57.37-1.41.03-2.07-.1-.19-.22-.35-.35-.47.33-.16.61-.2.86-.11M105.11,23.2c.09-.08.21-.09.27-.08.06,0,.1-.01.12-.03.02-.02.05-.06.04-.11,0-.11.06-.21.13-.27.08-.05.18-.05.25,0l.14.11-.02-.17s0-.08.04-.12c.06-.05.16-.08.26-.06.06,0,.26.04.31.18l.05.18.08-.16c.09-.18.27-.24.4-.22.13.02.22.12.25.26l.15-.02c-.03-.21-.17-.35-.37-.38-.04,0-.07,0-.11,0,.04-.23.19-.78.64-.9.08.09.15.2.21.34.21.52.13,1.2-.2,1.59l.11.09c.36-.43.45-1.17.22-1.74-.16-.4-.45-.64-.82-.68-.29-.03-.58.1-.82.37-.22.25-.36.58-.4.94,0,.01,0,.05,0,.08-.02.01-.04.02-.05.04-.02.01-.03.03-.04.05-.03-.5.13-1.01.46-1.37.25-.27.55-.42.86-.41h0c.45,0,.85.27,1.09.75.33.63.31,1.42-.04,1.95-.13.26-.57.39-.82.39-.06,0-.14,0-.23.01-.35.03-1.01.08-1.13-.14l-.02-.04-.04-.11c-.1.12-.26.26-.42.21-.06-.02-.11-.09-.11-.16l.02-.16-.13.1c-.15.11-.3.08-.37,0-.07-.07-.05-.18.03-.28M106.2,22.32c.04-.34.17-.64.37-.87.2-.23.45-.34.69-.32.14.01.26.07.37.14-.51.2-.64.86-.66,1.05-.08.03-.16.09-.22.16-.08-.09-.2-.15-.36-.17-.05,0-.12,0-.18,0"/>
  <path class="cls-2" d="M96.22,21.73c-.14.88.68,1.19.84,1.24.37.51.75.62,1.03.62.18,0,.31-.05.37-.07.14.04.27.06.4.06.17,0,.33-.03.49-.09.04.04.11.08.25.08.14,0,.31,0,.46-.08.05.06.14.09.26.08.24,0,.48-.02.67-.14.04.03.1.05.18.05.36.02.73.03,1.09-.01.08,0,.15-.05.17-.11.02-.07-.01-.15-.09-.2-.01,0-.03-.02-.04-.03-.03-.01-.05-.03-.06-.04,0,0,0-.01,0-.02,0-.02-.02-.04-.04-.06l-.02-.02c-.11-.05-.26-.06-.4-.07-.06,0-.12-.01-.18-.02-.04-.14-.2-.24-.36-.25-.01,0-.04,0-.04,0,0,0-.01-.02-.02-.03,0,0-.01-.02-.02-.02-.06-.07-.13-.11-.21-.12.04-.54-.14-1.09-.49-1.48-.27-.3-.61-.46-.95-.46,0,0-.02,0-.03,0-.27,0-.53.09-.75.26-.33-.18-.62-.24-.89-.19-.04-.09-.12-.23-.27-.31-.02-.07-.1-.26-.28-.36-.03-.09-.12-.18-.15-.21-.2-.21-.4-.29-.6-.25-.32.06-.5.43-.53.52-.19.19-.1.58-.07.69-.22.53.16.94.28,1.05M101.03,22.68v.02s.05.05.08.07c.04.02.08.03.12.03.1,0,.21.07.22.16v.06s.06.01.06.01c.07.01.16.02.24.03.12.01.25.02.34.06,0,0,0,0,0,0,0,.01.01.02.02.03.03.05.08.07.11.09.01,0,.02.01.03.02.02.02.03.03.03.03,0,0-.01,0-.04,0-.35.05-.72.03-1.07.01-.07,0-.1-.02-.1-.03l-.03-.11-.09.08c-.16.14-.39.15-.63.16-.07,0-.15-.01-.16-.05l-.02-.11-.09.06c-.12.08-.27.09-.45.09-.08,0-.14-.01-.15-.04l-.02-.08-.08.04c-.09.04-.18.07-.29.08-.36-.36-.49-1.03-.31-1.59.04-.12.11-.29.24-.43.47.13.61.76.65.97h-.1s0,.15,0,.15l.69-.03c.07,0,.12,0,.15.02.07.06.14.09.2.09.04,0,.08,0,.13,0,.12,0,.24,0,.31.08M99.13,21.28c.1-.07.22-.13.37-.14.2-.03.42.06.61.24.28.26.45.67.45,1.06-.02,0-.04-.02-.06-.04-.08-.06-.18-.05-.25-.05l-.44.02c-.03-.21-.17-.87-.67-1.08M99.47,20.68h0c.31,0,.62.14.86.41.32.35.49.87.45,1.36-.02,0-.04,0-.07,0,0,0-.02,0-.03,0,0-.43-.18-.89-.49-1.19-.22-.21-.48-.31-.73-.28-.4.05-.71.33-.86.79-.16.5-.11,1.19.26,1.65-.16,0-.32-.01-.47-.05-.34-.53-.36-1.32-.04-1.95.25-.48.64-.75,1.09-.75M96.09,20.67c-.04-.12-.1-.46.03-.58h.01s0-.03,0-.03c0,0,.16-.39.43-.44.14-.03.3.04.46.21.01.01.02.02.03.04-.2-.02-.44.06-.72.25l.08.12c.3-.2.54-.27.72-.2.12.04.19.14.23.22-.26,0-.55.2-.89.62l.12.09c.41-.52.67-.59.81-.57.14.03.22.16.26.24,0,0,0,0,0,0-.44.17-.61.63-.61.65l.14.05s.15-.42.53-.56c.24-.09.53-.05.86.11-.14.13-.25.28-.35.47-.34.66-.33,1.5.03,2.07-.22.05-.67.05-1.11-.56l-.02-.02h-.03s-.92-.25-.75-1.12v-.04s-.03-.03-.03-.03c-.02-.02-.51-.41-.27-.93v-.03s0-.03,0-.03Z"/>
  <path class="cls-2" d="M103.3,22.95c0,.25-.03.51-.08.78v.03s.01.03.01.03c0,0,.16.21.43.31l.09.03v-.09s.1-.7.02-1.42c.91-.28,1.19-1.19,1.27-1.57.05-.23.03-.24,0-.26l-.03-.03-.04.02c-.77.3-1.13.86-1.29,1.29-.06-.23-.14-.43-.24-.6.74-.08,1.32-.71,1.32-1.47,0-.43-.19-.82-.48-1.08l.37-.45-.69.08-.21-.35-.35.22-.28-.23-.14.29-.62-.24.17.51c-.48.28-.71.79-.71,1.26,0,.61.37,1.27,1.17,1.44.03.04.2.29.28.81-.26-.4-.73-.86-1.52-1h-.06s-.02.05-.02.05c-.02.06.16.47.34.76.24.37.66.82,1.29.89M103.74,22.37c.1-.38.38-1.06,1.17-1.41-.06.33-.3,1.27-1.2,1.53l.03-.12ZM104.31,18.65l-.14.17c-.06-.05-.13-.09-.2-.13l.33-.04ZM104.62,20c0,.6-.4,1.1-.94,1.27.87-1.17.26-2.17-.05-2.55.57.15.99.67.99,1.28M103.7,18.4l.14.24c-.12-.05-.24-.08-.37-.1l.23-.14ZM103.17,18.41l.14.11s-.01,0-.02,0c-.06,0-.12,0-.18.01l.06-.13ZM102.87,18.59c-.08.02-.15.05-.22.08l-.06-.19.28.11ZM101.96,20c0-.54.33-1.14,1.03-1.29-.31.37-.94,1.37-.07,2.56-.66-.18-.96-.75-.96-1.27M103.22,18.68s.04,0,.07,0c.04,0,.07,0,.11,0,.15.14,1.21,1.26.06,2.64-.05,0-.11.01-.17.01-.05,0-.1,0-.15-.01-1.14-1.38-.07-2.49.08-2.64M103.17,21.46s.06,0,.1,0c.15.22.27.52.33.89l.02.15v.06c.08.57.04,1.13.01,1.35-.13-.07-.22-.16-.26-.2.05-.3.07-.58.08-.84v-.07s0-.23,0-.23h0c-.03-.59-.18-.94-.27-1.12M103.31,22.62l.09.19h0c-.95-.07-1.41-1.05-1.54-1.39.87.2,1.28.83,1.46,1.2"/>
  <path class="cls-2" d="M98.28,8.96c-.06-.07-.06-.2-.02-.29.01-.03.03-.05.05-.07,0,0,0,0,.01,0-.09.04-.21,0-.25-.09-.05-.11.02-.25.13-.29-.09.02-.18.07-.27.1-.09.03-.2.04-.27-.02-.07-.06-.08-.17-.05-.25.03-.09.1-.16.16-.22-.15.03-.28.18-.42.13-.14-.05-.16-.25-.08-.38.08-.13.21-.22.29-.34-.22.1-.45.19-.69.24-.08.02-.18.03-.25-.02-.05-.04-.04-.12,0-.16l-.33.11c-.08.03-.16.05-.24.03-.08-.02-.14-.12-.09-.19-.12.07-.25.15-.39.13-.08,0-.14-.05-.19-.12-.05-.09-.01-.13.06-.19-.13.05-.27.22-.22.37.03.11.16.17.27.16.11-.01.22-.07.31-.13-.04.03.08.16.1.17.08.06.2.08.29.05.06-.01.11-.03.16-.06.02,0,.15-.07.15-.09,0,.07.1.09.18.09.15,0,.3,0,.44-.01-.11.09-.13.26-.07.38.07.12.23.19.36.15-.11.13-.02.35.14.4.14.04.29-.02.39-.13-.01.02-.02.04-.03.06-.01.02-.02.04-.03.06-.02.04-.02.09-.02.14,0,.04.02.08.05.11.02.03.05.06.09.07.02,0,.04.01.06.01.05,0,.08-.02.12-.05-.03.04-.05.08-.07.13-.02.04-.04.09-.05.14-.02.12.08.21.19.23.06,0,.13,0,.18-.03.12-.07.19-.21.25-.34-.09.13-.31.13-.41.01"/>
  <path class="cls-2" d="M92.71,7.44c.09-.02.17-.08.25-.13.02-.01.05-.03.07-.01.02.01.02.04.02.07.01.11.12.19.24.2s.22-.04.32-.1c0,.02,0,.04,0,.06.05.07.14.11.22.11.09,0,.17-.02.26-.05.11-.03.22-.07.28-.16-.05.05-.12.11-.2.1-.08-.01-.13-.11-.12-.19s.07-.15.12-.22c-.15.09-.3.16-.47.2-.07.02-.14.03-.21.02-.07-.02-.13-.08-.12-.15,0-.04.03-.07.05-.1.04-.04.09-.08.15-.11-.13.05-.27.11-.4.16-.1.04-.2.08-.31.07-.11,0-.22-.08-.23-.18,0-.04,0-.08.02-.12-.02.01-.04.02-.05.03-.07.05-.13.11-.17.19-.04.08-.04.18.02.24.06.07.17.09.26.06"/>
  <path class="cls-2" d="M99.45,5.09s-.03.01-.04.01c-.01,0-.02,0-.04.01-.05.02-.1.03-.15.03-.08,0-.17-.05-.18-.13-.01-.05,0-.11-.02-.16-.03-.04-.09-.04-.15-.03-.12.02-.37.2-.47.05-.02-.02-.02-.06-.01-.08,0-.02,0-.04.02-.06-.11.09-.22.12-.34.19-.12.06-.24.12-.37.17-.07.03-.18.05-.23-.02-.07-.09,0-.23.07-.3.07-.08.07-.08.15-.13-.32.13-.6.2-.94.32-.34.12-.69.27-.95.52-.04.04-.08.08-.09.14-.01.06.02.12.07.14-.38.12-.72.38-.94.72-.04.07-.08.17-.02.23.03.03.07.03.11.03.11,0,.22-.04.32-.1-.06-.04-.07-.14-.05-.21.02-.07.08-.13.14-.18.22-.2.48-.37.76-.48-.04.02-.09-.03-.09-.07,0-.05.03-.09.06-.12.03-.03.05-.06.08-.09.13-.13.28-.23.45-.31.17-.09.36-.15.54-.21.03,0,.05-.02.08-.02,0,0,.07-.02.07-.02-.06.17-.07.43.18.43.25,0,.51-.11.67-.31-.05.08-.1.19-.04.26.05.07.16.07.24.05.2-.05.39-.14.54-.28-.06.08-.12.2-.05.27,0,0,.02.02.03.02.04.02.1.02.14,0,.07-.01.14-.03.2-.06.08-.04.16-.09.23-.15,0,0,.05-.04.03-.05"/>
  <path class="cls-2" d="M94.28,9.17c-.3.15-.62.26-.95.32-.1.02-.24,0-.25-.09,0-.04.02-.09.04-.12.11-.17.27-.31.44-.41-.29.14-.6.24-.92.29-.13.02-.31,0-.31-.14,0-.05.03-.1.07-.14.12-.15.27-.28.44-.38-.26.17-.56.31-.86.4-.12.04-.27.06-.38-.01-.07-.05-.08-.17-.04-.23-.18.1-.39.16-.6.15-.04,0-.08,0-.11-.03-.1-.09.02-.26.1-.35-.12.12-.24.24-.33.39-.05.08-.08.2,0,.25.03.02.07.02.1.02.07,0,.15,0,.22-.02.04,0,.09-.02.13-.03.05-.01.1-.03.15-.05.02-.01.13-.04.14-.07-.07.17.12.36.31.37.19,0,.36-.1.52-.21-.06.09,0,.22.1.27.1.05.21.03.32,0,.19-.04.37-.09.54-.17-.07.17-.32.3-.23.46.03.07.12.09.19.11.3.05.61-.01.86-.18.05-.04.11-.08.18-.08.05,0,.1.04.14.06.1.04.22.03.31-.02-.18.01-.35-.17-.32-.35"/>
  <path class="cls-2" d="M90.32,10.38s0-.09.02-.13c0-.01.02-.02.02-.04-.02,0-.03.02-.05.03-.02.01-.03.02-.05.03-.04.02-.07.04-.11.05-.08.03-.16.05-.24.06-.05,0-.11,0-.16,0-.03,0-.06,0-.08-.01-.02,0-.05,0-.06-.02-.02-.02-.03-.05-.03-.08,0-.03,0-.06,0-.09,0,0,0-.02,0-.02.01-.02.02-.05.04-.07.02-.02.03-.04.05-.06-.17.11-.37.2-.58.24-.03,0-.07.01-.09,0-.06-.04-.03-.13,0-.18.17-.27.38-.5.61-.71-.25.16-.48.36-.68.58-.08.09-.17.21-.13.32.03.1.15.15.26.15.11,0,.21-.06.3-.11.02-.01.05-.03.07-.04.02-.01.05-.02.07-.03-.03.08-.04.16-.04.24,0,.04.01.07.03.1.02.03.05.05.08.06.04,0,.08,0,.12-.01.05-.01.11-.03.16-.05.08-.03.16-.07.23-.11.05-.03.1-.07.15-.12,0,0,.02-.02.03-.02,0,.01,0,.03,0,.04,0,.02-.01.03-.01.05,0,.04,0,.07,0,.11.02.04.05.08.09.1.02.01.04,0,.06.01.02,0,.04,0,.07,0,.08,0,.15-.05.21-.1.19-.14.35-.32.44-.53-.21.15-.44.28-.68.38-.03.01-.13.04-.14,0"/>
  <path class="cls-2" d="M111.17,7.06c.07.06.11.1.06.19-.04.07-.1.11-.19.12-.14.02-.27-.06-.39-.13.04.07-.02.16-.09.19-.08.02-.16,0-.24-.03l-.33-.11s.04.12,0,.16c-.07.05-.16.04-.25.02-.24-.06-.47-.14-.69-.24.08.12.22.21.29.34.08.13.06.34-.08.38-.14.05-.27-.1-.42-.13.06.07.13.14.16.22.03.09.02.2-.05.25-.07.06-.18.05-.27.02-.09-.03-.17-.08-.26-.1.11.04.18.18.13.29-.04.09-.16.13-.25.09,0,0,0,0,.01,0,.02.02.04.04.05.07.04.08.04.21-.02.29-.1.12-.32.11-.41-.01.06.13.13.27.25.34.05.03.12.04.18.03.11-.02.21-.11.19-.23,0-.05-.02-.1-.05-.14-.02-.04-.05-.09-.07-.13.03.03.07.05.12.05.02,0,.04,0,.06-.01.04-.01.06-.04.09-.07.02-.03.04-.07.05-.11,0-.05,0-.09-.02-.14,0-.02-.02-.04-.03-.06,0-.02-.02-.04-.03-.06.1.11.25.18.39.13.16-.05.26-.28.14-.4.14.04.3-.03.36-.15.07-.12.04-.29-.07-.38.15,0,.3,0,.44.01.07,0,.17-.02.18-.09,0,.02.13.08.15.09.05.03.1.05.16.06.09.02.21,0,.29-.05.02-.01.14-.15.1-.17.1.06.2.12.31.13.11.01.24-.05.27-.16.04-.15-.09-.32-.22-.37"/>
  <path class="cls-2" d="M112.44,7.53c-.08.01-.14-.05-.2-.1.06.09.17.13.28.16.08.03.17.05.26.05.09,0,.18-.04.22-.11,0-.02,0-.04,0-.06.09.06.2.11.32.1.11,0,.23-.09.24-.2,0-.02,0-.05.02-.07.02-.01.05,0,.07.01.08.05.16.1.25.13.09.02.2,0,.26-.06.05-.07.05-.16.02-.24-.04-.08-.1-.14-.17-.19-.02-.01-.04-.02-.05-.03.02.04.03.08.02.12-.01.1-.13.18-.23.18-.11,0-.21-.03-.31-.07-.13-.05-.27-.11-.4-.16.05.03.1.06.14.11.03.03.05.06.05.1,0,.07-.05.13-.12.15-.07.02-.14,0-.21-.02-.16-.05-.32-.11-.47-.2.05.06.11.13.12.22.01.08-.04.18-.12.19"/>
  <path class="cls-2" d="M107.2,5.14c.07.06.14.12.23.15.06.03.13.05.2.06.05,0,.1.01.14,0,.01,0,.02-.01.03-.02.07-.07.01-.19-.05-.27.15.14.34.23.54.28.08.02.19.02.24-.05.06-.08,0-.18-.04-.26.17.19.42.31.67.31.25,0,.24-.25.18-.43,0,0,.06.02.07.02.03,0,.05.02.08.02.18.06.37.13.54.21.16.08.32.18.45.31.03.03.06.06.08.09.03.04.06.08.06.12,0,.05-.05.09-.09.07.28.11.54.28.76.48.06.05.11.11.14.18.02.07.01.16-.05.21.09.06.2.1.32.1.04,0,.08,0,.11-.03.06-.05.03-.16-.02-.23-.21-.34-.55-.6-.94-.72.06-.01.09-.08.07-.14-.01-.06-.05-.1-.09-.14-.26-.25-.61-.4-.95-.52-.34-.12-.7-.21-1.03-.37.09.05.17.11.24.19.06.07.14.22.07.3-.06.07-.16.05-.23.02-.12-.05-.25-.11-.37-.17-.12-.06-.23-.1-.34-.19,0,.02.01.04.02.06,0,.03,0,.06-.01.08-.1.15-.35-.02-.47-.05-.05-.01-.12,0-.15.03-.03.04-.01.1-.02.16-.02.08-.1.13-.18.13-.05,0-.1-.01-.15-.03-.01,0-.02,0-.04-.01,0,0-.03-.02-.04-.02-.01,0,.03.04.03.05"/>
  <path class="cls-2" d="M112.33,9.54s.09-.05.14-.06c.07,0,.12.04.18.08.25.17.56.24.86.18.08-.01.16-.04.19-.11.08-.16-.17-.29-.23-.46.18.07.36.13.54.17.11.02.22.04.32-.01.1-.05.16-.18.1-.27.16.11.33.22.52.21.19,0,.38-.19.31-.37,0,.02.11.06.14.07.05.02.1.04.15.05.04.01.09.02.13.03.07.01.15.02.22.02.04,0,.07,0,.1-.02.08-.05.05-.17,0-.25-.09-.15-.21-.27-.33-.39.08.09.2.26.1.35-.03.03-.07.03-.11.03-.21.01-.42-.04-.6-.15.04.07.03.18-.04.23-.11.08-.25.05-.38.01-.3-.09-.6-.23-.86-.4.17.1.31.23.44.38.03.04.07.09.07.14,0,.13-.19.16-.31.14-.32-.05-.63-.14-.92-.28.18.1.33.24.44.41.02.04.05.08.04.12-.02.1-.15.11-.25.09-.33-.06-.65-.17-.95-.32.03.18-.14.36-.32.35.09.06.21.07.31.02"/>
  <path class="cls-2" d="M115.92,10.54c.06.05.14.09.21.1.02,0,.04,0,.07,0,.02,0,.04,0,.06-.01.04-.02.07-.06.09-.1.01-.03.01-.07,0-.11,0-.02,0-.04-.01-.05,0-.01,0-.03,0-.04.01,0,.02.02.03.02.05.04.09.08.15.12.07.05.15.08.23.11.05.02.11.04.16.05.04,0,.08.02.12.01.03,0,.06-.03.08-.06.02-.03.03-.07.03-.1,0-.08,0-.16-.04-.24.02.01.05.02.07.03.02.01.05.03.07.04.09.05.19.11.3.11.11,0,.23-.04.26-.15.04-.12-.04-.23-.13-.32-.2-.22-.43-.42-.68-.58.23.21.44.44.61.71.04.06.07.15,0,.18-.03.02-.06.01-.1,0-.21-.04-.4-.13-.58-.24.02.02.04.04.06.06.02.02.02.05.04.07,0,0,0,.02,0,.02,0,.03,0,.06,0,.09,0,.03-.01.06-.03.08-.02.02-.04.02-.06.02-.03,0-.06,0-.08.01-.05,0-.11,0-.16,0-.08,0-.16-.03-.24-.06-.04-.02-.07-.03-.11-.05-.02-.01-.03-.02-.05-.03-.01,0-.03-.03-.05-.03,0,.01.02.03.02.04.02.04.03.09.02.13-.01.04-.11.02-.14,0-.24-.1-.47-.22-.68-.38.1.21.25.4.45.53"/>
  <path class="cls-2" d="M102.82,15.25c-.58-.08-.76-.69-.76-.69l-.14.23c.39.55.91.46.91.46"/>
  <path class="cls-2" d="M101.64,6.02c-.1,0-.18.08-.18.18s.08.18.18.18.18-.08.18-.18-.08-.18-.18-.18M101.64,6.28s-.08-.04-.08-.08.04-.08.08-.08.08.04.08.08-.04.08-.08.08"/>
  <path class="cls-2" d="M109.01,15.9c.1,0,.21.01.31.02.06,0,.09.02.12.03.04.03.06.07.06.13,0,.05,0,.1,0,.16,0,.04,0,.06,0,.07v.03c.06,0,.11.01.17.02v-.02s-.03-.03-.03-.06c0-.02,0-.04,0-.08,0-.04,0-.08.01-.13,0-.05,0-.09-.02-.12-.02-.03-.04-.05-.08-.07.05-.02.09-.04.11-.07.03-.03.05-.08.06-.13.01-.11-.02-.19-.12-.24-.05-.03-.11-.04-.19-.05-.16-.01-.32-.03-.49-.04-.02.31-.04.62-.06.93.04,0,.09,0,.13,0,0-.13.02-.27.03-.4M109.05,15.48c.12,0,.23.02.34.03.05,0,.09.01.11.03.05.03.07.08.06.14,0,.06-.03.1-.07.12-.04.02-.09.03-.16.02-.11,0-.21-.02-.32-.03,0-.11.02-.21.03-.32"/>
  <path class="cls-2" d="M110.59,16.3c.06-.07.09-.15.12-.25.03-.12.02-.23-.03-.33-.06-.1-.16-.17-.3-.19-.14-.02-.28-.05-.42-.06-.05.31-.1.62-.14.92.13.02.26.04.39.06.17.03.29-.02.39-.14M109.97,16.3c.04-.24.07-.47.11-.71.08.01.17.03.25.04.11.02.19.06.22.14.04.07.04.17.02.28,0,.03-.02.06-.03.1-.02.05-.05.1-.08.13-.04.04-.09.06-.14.07-.03,0-.07,0-.11,0-.08-.01-.15-.02-.23-.04"/>
  <path class="cls-2" d="M111.51,16.63c-.19-.05-.38-.1-.57-.15.02-.1.05-.2.08-.31.18.04.36.09.53.14,0-.03.02-.07.03-.1-.18-.05-.36-.1-.54-.14.02-.09.05-.18.07-.28.2.05.4.1.6.15.01-.04.02-.07.03-.11-.24-.07-.49-.13-.74-.19-.07.3-.15.61-.21.91.23.05.46.11.69.17.01-.04.02-.07.03-.11"/>
  <path class="cls-2" d="M111.76,16.82c.08-.24.16-.48.24-.72.09.29.16.58.23.87.05.02.09.03.14.05.11-.29.22-.58.34-.87-.04-.02-.08-.03-.13-.05-.09.24-.18.47-.27.71-.07-.29-.14-.58-.23-.88-.05-.02-.11-.03-.16-.05-.1.3-.19.59-.28.89.04.01.08.02.12.04"/>
  <path class="cls-2" d="M106.79,16.35s.09,0,.13-.01c-.01-.12-.02-.25-.04-.37.11-.2.23-.39.35-.59-.06,0-.11,0-.17.01-.09.16-.18.32-.26.48-.11-.14-.23-.27-.35-.41-.06,0-.11.01-.17.02.16.17.31.33.46.5.01.12.03.25.04.37"/>
  <path class="cls-2" d="M108.2,16.3c.16,0,.29-.05.38-.16.08-.09.12-.2.13-.34,0-.13-.02-.24-.09-.32-.08-.11-.22-.17-.41-.17-.18,0-.32.06-.41.18-.07.09-.1.2-.1.33,0,.14.05.26.13.34.09.09.21.14.36.14M107.95,15.53c.07-.07.16-.1.27-.1.11,0,.2.03.26.1.06.07.09.16.09.27,0,.1-.04.2-.09.27s-.14.12-.26.12c-.12,0-.21-.03-.27-.1-.06-.07-.09-.16-.09-.26,0-.13.03-.23.1-.29"/>
  <path class="cls-2" d="M93.66,17.04c-.1-.27-.2-.53-.3-.8-.05.02-.09.03-.14.05.12.3.24.6.35.9.2-.07.4-.14.6-.2-.01-.04-.02-.07-.03-.11-.16.05-.32.1-.48.16"/>
  <path class="cls-2" d="M94.06,16.05c.1.31.2.61.29.92.04-.01.09-.02.13-.04-.09-.31-.19-.62-.28-.92-.05.01-.09.03-.14.04"/>
  <path class="cls-2" d="M95.28,16.24s-.08-.03-.13-.04c.03-.02.05-.05.07-.07.03-.05.04-.1.02-.16-.01-.05-.04-.09-.08-.13-.07-.06-.17-.07-.29-.04-.15.03-.3.07-.45.11.09.31.18.62.27.93.13-.04.27-.07.41-.1.13-.03.22-.08.26-.17.03-.06.04-.12.02-.18-.02-.07-.05-.12-.11-.15M94.68,16.28c-.03-.09-.05-.19-.08-.29.08-.02.17-.04.25-.06.06-.01.11-.02.14-.02.06,0,.1.05.12.11.01.06,0,.11-.05.14-.03.02-.07.04-.13.05-.08.02-.17.04-.25.06M95.24,16.53c-.02.05-.08.09-.16.11-.1.02-.19.05-.29.07-.03-.11-.06-.22-.09-.33.09-.02.18-.04.27-.07.06-.01.11-.02.14-.01.07.01.12.05.13.12,0,.04,0,.08,0,.11"/>
  <path class="cls-2" d="M96.33,16.35c-.21.03-.41.06-.61.09-.02-.11-.04-.21-.06-.32.19-.03.38-.06.57-.09,0-.04-.01-.07-.02-.11-.19.03-.38.06-.57.09-.02-.1-.04-.19-.06-.29.21-.04.42-.07.63-.1,0-.04-.01-.08-.02-.12-.26.03-.52.08-.78.12.07.31.14.63.2.94.24-.05.49-.08.74-.12,0-.04-.01-.08-.02-.11"/>
  <path class="cls-2" d="M96.74,16.4c-.02-.14-.03-.27-.05-.41.11-.01.21-.02.32-.03.06,0,.1,0,.13,0,.05.02.08.06.09.12,0,.05.02.11.02.16,0,.04,0,.06.01.07v.03c.07,0,.13,0,.18,0v-.02s-.04-.03-.05-.06c0-.02-.01-.04-.01-.08,0-.04-.01-.09-.02-.13,0-.06-.02-.1-.04-.12-.02-.02-.06-.04-.1-.05.04-.02.08-.06.1-.09.02-.04.03-.09.03-.15,0-.11-.07-.18-.17-.22-.06-.02-.13-.02-.21-.02-.17.01-.34.03-.5.05.05.32.09.64.14.95.04,0,.09,0,.14-.01M96.99,15.52c.05,0,.09,0,.12.01.06.02.09.07.1.13,0,.06,0,.11-.05.14-.04.03-.09.04-.16.05-.11,0-.22.02-.33.03-.01-.11-.03-.22-.04-.33.12-.01.24-.02.36-.03"/>
  <path class="cls-2" d="M97.76,15.47c.02.28.03.57.04.85.05,0,.09,0,.14,0,0-.28-.02-.57-.03-.85.12,0,.25,0,.37,0,0-.04,0-.08,0-.12-.3,0-.6,0-.9.01,0,.04,0,.08,0,.11.12,0,.25,0,.37-.01"/>
  <path class="cls-2" d="M98.35,16.32c.04-.1.08-.19.12-.29.14,0,.28.01.42.02.03.1.06.2.09.3.05,0,.1,0,.16.01-.11-.33-.23-.66-.36-.99-.06,0-.11,0-.17,0-.14.32-.27.63-.4.95.05,0,.1,0,.14,0M98.69,15.5c.06.15.11.29.16.44-.11,0-.22-.01-.33-.02.06-.14.12-.28.18-.42"/>
  <path class="cls-2" d="M100.1,16.25c.05-.08.09-.17.1-.27.02-.13,0-.25-.07-.34-.08-.11-.19-.17-.34-.19-.15-.02-.3-.03-.45-.05-.02.32-.03.64-.06.96.14.01.28.03.42.05.18.02.31-.03.41-.17M99.42,16.27c.02-.25.04-.49.05-.74.09,0,.18.02.27.03.12.01.21.06.25.13.05.07.07.17.05.29,0,.03-.01.06-.02.1-.02.06-.05.11-.08.14-.04.04-.09.07-.15.08-.03,0-.07,0-.12,0-.09,0-.17-.02-.26-.03"/>
  <path class="cls-2" d="M104.45,33.12h-.02v-.09h-.14v-.24h.26v-.62h-.21s-.06,0-.06,0v-.18s-.02-.09-.06-.12c-.04-.02-.09-.03-.13,0s-.06.07-.06.12v.19h-.45v-.19s-.02-.09-.06-.12c-.04-.02-.09-.02-.13,0-.04.02-.06.07-.06.11v.19h-.44v-.19s-.02-.09-.06-.12c-.04-.02-.09-.02-.13,0-.04.02-.06.07-.06.11v.19h-.26v.62h.26v.24h-.18v.09h-.02l-.18-.22h-.67l.3.44.37.24h1.17s0,0,0,0h1.17s.37-.25.37-.25l.3-.44h-.67l-.18.22ZM103.96,32.31h.45v.33h-.45v-.33ZM104.04,32.79v.24h-.17v.1h-.16s0-.1,0-.1h-.11v-.24h.45ZM103.24,32.31h.05c.1,0,.15-.03.18-.05.02.02.07.05.18.05h.05v.33h-.45v-.33ZM103.33,32.79v.24h-.15v.1h-.16v-.1h-.13v-.24h.44ZM102.52,32.64v-.33h.44v.33h-.44ZM105.01,33.04l-.14.2-.3.19h-1.13s-1.13,0-1.13,0l-.3-.19-.14-.2h.32l.17.22h.24s0-.09,0-.09h.27v.1h.46s0-.1,0-.1h.22v.1h.46v-.1h.27v.09h.24s.18-.23.18-.23h.32Z"/>
  <path class="cls-2" d="M104.45,37.28h-.02v-.09h-.14v-.24h.26v-.62h-.21s-.06,0-.06,0v-.18s-.02-.09-.06-.12c-.04-.02-.09-.03-.13,0s-.06.07-.06.12v.19h-.45v-.19s-.02-.09-.06-.12c-.04-.02-.09-.02-.13,0-.04.02-.06.07-.06.11v.19h-.44v-.19s-.02-.09-.06-.12c-.04-.02-.09-.02-.13,0-.04.02-.06.07-.06.11v.19h-.26v.62h.26v.24h-.18v.09h-.02l-.18-.22h-.67l.3.44.37.24h1.17s0,0,0,0h1.17s.37-.25.37-.25l.3-.44h-.67l-.18.22ZM103.96,36.48h.45v.33h-.45v-.33ZM104.04,36.96v.24h-.17v.1h-.16s0-.1,0-.1h-.11v-.24h.45ZM103.24,36.48h.05c.1,0,.15-.03.18-.05.02.02.07.05.18.05h.05v.33h-.45v-.33ZM103.33,36.96v.24h-.15v.1h-.16v-.1h-.13v-.24h.44ZM102.52,36.81v-.33h.44v.33h-.44ZM105.01,37.21l-.14.2-.3.19h-1.13s-1.13,0-1.13,0l-.3-.19-.14-.2h.32l.17.22h.24s0-.09,0-.09h.27v.1h.46s0-.1,0-.1h.22v.1h.46v-.1h.27v.09h.24s.18-.23.18-.23h.32Z"/>
  <path class="cls-2" d="M101.02,14.79h0s0,0,0,0"/>
  <rect class="cls-3" x="84.63" y="72.07" width="18.99" height="3.22"/>
  <rect class="cls-1" x="103.62" y="72.07" width="9.49" height="3.22"/>
  <rect class="cls-4" x="113.11" y="72.07" width="9.49" height="3.22"/>
</svg>